<svg version="1.1" id="Layer_1" xmlns="http://www.w3.org/2000/svg" xmlns:xlink="http://www.w3.org/1999/xlink" x="0px" y="0px"
	 width="100%" viewBox="0 0 414 286" enable-background="new 0 0 414 286" xml:space="preserve">
<path fill="#F3F6F7" opacity="1.000000" stroke="none" 
	d="
M331.000000,287.000000 
	C221.050705,287.000000 111.101402,287.000000 1.076052,287.000000 
	C1.076052,191.761368 1.076052,96.522644 1.076052,1.000000 
	C110.687935,1.000000 220.376114,1.000000 330.532166,1.468657 
	C331.003876,13.563783 331.048737,25.190538 330.967194,36.816406 
	C330.955048,38.547123 330.348083,40.273666 329.678101,41.856865 
	C327.731689,41.898643 326.123444,42.085693 324.515228,42.272736 
	C325.012115,43.850491 325.509003,45.428249 325.640625,47.002953 
	C324.780853,46.937874 324.189636,46.669758 323.808289,46.848770 
	C321.960175,47.716335 320.168427,48.703896 318.356689,49.648941 
	C319.639435,51.090714 320.699829,53.391060 322.251862,53.792999 
	C325.346771,54.594498 326.139954,52.184700 326.006836,49.491894 
	C325.965790,48.661140 325.996277,47.826851 326.266174,47.126549 
	C327.310150,47.801292 328.082001,48.343670 327.882477,48.203465 
	C329.283447,47.203632 330.135803,46.595352 330.991760,46.456532 
	C331.000793,91.551567 331.017334,136.177170 330.969482,180.802689 
	C330.967621,182.536148 330.348053,184.268951 329.678101,185.856812 
	C327.731689,185.898621 326.123444,186.085678 324.515228,186.272736 
	C325.012115,187.850510 325.508972,189.428268 325.640625,191.002960 
	C324.780853,190.937866 324.189636,190.669739 323.808289,190.848755 
	C321.960175,191.716309 320.168427,192.703873 318.356720,193.648926 
	C319.639465,195.090729 320.699829,197.391113 322.251862,197.793015 
	C325.346802,198.594498 326.139923,196.184616 326.006836,193.491852 
	C325.965790,192.661087 325.996277,191.826797 326.266174,191.126511 
	C327.310181,191.801285 328.082031,192.343674 327.882538,192.203506 
	C329.283478,191.203674 330.135803,190.595383 330.991760,190.456528 
	C330.996918,222.950653 330.998474,254.975327 331.000000,287.000000 
M308.735382,63.105202 
	C308.824402,63.070793 308.913422,63.036388 309.271210,62.899002 
	C309.180176,62.931847 309.089111,62.964691 308.735382,63.105202 
M277.563538,90.217735 
	C277.292389,90.416733 277.103119,90.675598 276.462738,91.473328 
	C276.122162,92.844513 275.781555,94.215691 275.431213,95.626198 
	C271.834412,94.883682 269.483154,96.329445 269.645294,99.626465 
	C269.703308,100.806313 272.438324,102.439407 274.171204,102.795143 
	C276.081238,103.187241 279.726715,96.130127 279.682251,94.002609 
	C280.711914,94.060890 281.741547,94.119164 282.771210,94.177444 
	C282.595215,93.646469 282.419220,93.115501 282.243256,92.584526 
	C281.163177,93.057785 280.083130,93.531044 278.317932,93.895004 
	C277.880646,92.931473 277.443390,91.967941 277.442841,90.785980 
	C277.715607,90.585960 277.901733,90.324280 278.264679,89.897827 
	C278.176056,89.931480 278.087402,89.965134 277.563538,90.217735 
M165.271408,62.899734 
	C165.180130,62.932526 165.088837,62.965321 164.735535,63.105862 
	C164.824341,63.071442 164.913162,63.037018 165.271408,62.899734 
M21.271431,206.899612 
	C21.180136,206.932434 21.088839,206.965256 20.735521,207.105865 
	C20.824345,207.071381 20.913168,207.036911 21.271431,206.899612 
M309.271667,206.899597 
	C309.180298,206.932419 309.088928,206.965256 308.735504,207.105881 
	C308.824432,207.071396 308.913330,207.036926 309.271667,206.899597 
M45.735455,182.105194 
	C45.824451,182.070770 45.913448,182.036331 46.271168,181.898987 
	C46.180157,181.931839 46.089149,181.964691 45.735455,182.105194 
M45.735455,38.105225 
	C45.824451,38.070793 45.913448,38.036362 46.271175,37.899010 
	C46.180164,37.931873 46.089153,37.964741 45.735455,38.105225 
M189.735413,38.105225 
	C189.824417,38.070793 189.913437,38.036362 190.271179,37.899014 
	C190.180145,37.931877 190.089127,37.964737 189.735413,38.105225 
M21.271441,62.899727 
	C21.180141,62.932522 21.088842,62.965317 20.735521,63.105865 
	C20.824345,63.071442 20.913170,63.037022 21.271441,62.899727 
M133.563690,234.217712 
	C133.292465,234.416748 133.103134,234.675674 132.462708,235.473450 
	C132.122147,236.844620 131.781586,238.215775 131.456238,239.525620 
	C127.551979,239.500122 124.556366,241.521423 125.564728,243.557693 
	C126.315140,245.073074 128.438354,246.439438 130.171234,246.795151 
	C132.081284,247.187210 135.726715,240.130112 135.682266,238.002594 
	C136.711899,238.060898 137.741531,238.119217 138.771164,238.177521 
	C138.595184,237.646515 138.419205,237.115524 138.243225,236.584518 
	C137.163162,237.057785 136.083084,237.531052 134.317886,237.894989 
	C133.880615,236.931458 133.443344,235.967926 133.442841,234.786011 
	C133.715652,234.585983 133.901779,234.324295 134.264664,233.897919 
	C134.176147,233.931534 134.087631,233.965164 133.563690,234.217712 
M277.563477,234.217758 
	C277.292267,234.416748 277.103027,234.675659 276.462738,235.473419 
	C276.122162,236.844604 275.781555,238.215775 275.456177,239.525650 
	C271.552094,239.500092 268.556305,241.521439 269.564667,243.557663 
	C270.315094,245.073059 272.438324,246.439423 274.171204,246.795151 
	C276.081238,247.187241 279.726715,240.130157 279.682312,238.002579 
	C280.711945,238.060852 281.741577,238.119125 282.771210,238.177399 
	C282.595215,237.646423 282.419220,237.115448 282.243225,236.584488 
	C281.163177,237.057755 280.083099,237.531021 278.317902,237.894958 
	C277.880615,236.931442 277.443359,235.967926 277.442841,234.785995 
	C277.715668,234.585983 277.901794,234.324310 278.264679,233.897858 
	C278.176056,233.931503 278.087402,233.965134 277.563477,234.217758 
M8.061957,223.570526 
	C8.367242,223.887604 8.672527,224.204697 8.977808,224.521790 
	C9.157828,224.315338 9.337848,224.108902 9.517868,223.902451 
	C9.014672,223.599030 8.511477,223.295624 8.057470,222.379944 
	C8.288530,221.512497 8.519590,220.645050 8.874126,219.314041 
	C7.615020,220.048447 6.813517,220.515945 6.061856,220.361740 
	C6.263918,219.490570 6.465979,218.619400 6.668041,217.748245 
	C6.099142,217.817474 5.530243,217.886719 4.961345,217.955948 
	C5.303273,218.975128 5.645202,219.994308 6.076046,221.649628 
	C6.714571,222.102692 7.353096,222.555740 8.061957,223.570526 
M264.061981,255.570480 
	C264.367279,255.887573 264.672546,256.204681 264.977844,256.521759 
	C265.157867,256.315338 265.337921,256.108917 265.517944,255.902496 
	C265.014801,255.599075 264.511688,255.295639 264.057587,254.379929 
	C264.288635,253.512466 264.519714,252.645020 264.874237,251.314056 
	C263.611359,252.050674 262.811798,252.517059 262.061951,252.361725 
	C262.264008,251.490524 262.466034,250.619308 262.668060,249.748108 
	C262.092743,249.798401 261.517426,249.848679 260.942108,249.898956 
	C261.290436,250.937149 261.638763,251.975327 262.076172,253.649536 
	C262.714600,254.102631 263.353027,254.555725 264.061981,255.570480 
M120.062019,255.570511 
	C120.367317,255.887619 120.672615,256.204712 120.977921,256.521820 
	C121.157913,256.315338 121.337914,256.108887 121.517914,255.902420 
	C121.014694,255.599014 120.511467,255.295609 120.057487,254.379929 
	C120.288589,253.512466 120.519691,252.645004 120.874359,251.313766 
	C119.611237,252.050568 118.811623,252.517014 118.061882,252.361725 
	C118.263901,251.490509 118.465919,250.619308 118.667931,249.748093 
	C118.099022,249.817383 117.530106,249.886673 116.961197,249.955963 
	C117.303177,250.975143 117.645157,251.994324 118.076157,253.649567 
	C118.714645,254.102646 119.353134,254.555725 120.062019,255.570511 
M6.059990,76.366249 
	C6.263557,75.494568 6.467123,74.622887 6.670690,73.751205 
	C6.101946,73.819702 5.533203,73.888199 4.964459,73.956696 
	C5.305146,74.975418 5.645833,75.994148 6.073550,77.650467 
	C6.712905,78.103256 7.352261,78.556046 8.061958,79.570541 
	C8.367249,79.887627 8.672539,80.204712 8.977829,80.521797 
	C9.157845,80.315346 9.337860,80.108887 9.517879,79.902435 
	C9.014680,79.598999 8.511481,79.295570 8.057395,78.380234 
	C8.288701,77.512016 8.520007,76.643806 8.874429,75.313469 
	C7.613047,76.051414 6.813159,76.519371 6.059990,76.366249 
M264.061981,111.570511 
	C264.367249,111.887611 264.672546,112.204712 264.977814,112.521805 
	C265.157867,112.315392 265.337921,112.108978 265.517975,111.902550 
	C265.014832,111.599091 264.511688,111.295631 264.057648,110.379906 
	C264.288696,109.512444 264.519714,108.644981 264.874207,107.314018 
	C263.611359,108.050652 262.811798,108.517059 262.061951,108.361725 
	C262.264008,107.490532 262.466064,106.619339 262.668121,105.748146 
	C262.096344,105.809067 261.524597,105.869987 260.952820,105.930908 
	C261.297577,106.958435 261.642334,107.985954 262.076141,109.649529 
	C262.714569,110.102623 263.353027,110.555717 264.061981,111.570511 
M105.328880,122.924767 
	C104.105019,122.396477 102.881157,121.868179 101.657295,121.339882 
	C101.414810,121.716988 101.172325,122.094093 100.929840,122.471199 
	C102.703331,123.872246 104.476830,125.273293 106.250336,126.674339 
	C106.823463,125.809143 107.396591,124.943954 108.729340,124.191330 
	C110.217705,123.520241 111.772873,122.966057 113.183998,122.159790 
	C125.733261,114.989632 138.204834,107.680367 150.854233,100.692520 
	C152.441147,99.815872 155.325806,99.825119 156.926239,100.689049 
	C163.935989,104.472946 170.662827,108.776649 177.551910,112.789413 
	C185.823166,117.607285 194.154968,122.321236 203.065170,127.426613 
	C203.065170,122.407364 202.866913,118.118401 203.132034,113.858261 
	C203.321533,110.813339 202.291840,109.163475 199.598068,107.622849 
	C184.322174,98.886230 169.181183,89.913788 154.204315,80.495964 
	C154.467926,79.996223 154.731522,79.496475 155.391998,78.754433 
	C155.378265,78.419014 155.364548,78.083603 155.350830,77.748184 
	C155.235657,78.167282 155.120483,78.586372 154.337952,78.987465 
	C152.875824,77.277977 151.413712,75.568489 149.017853,72.767281 
	C149.017853,75.116531 149.017853,76.588799 148.212936,78.033348 
	C143.919968,77.474022 141.865585,79.359985 142.332794,83.630341 
	C136.552139,84.670654 136.056519,85.506493 138.223969,89.850075 
	C130.032776,94.868454 120.427307,98.213783 116.713493,108.496490 
	C116.343681,109.520416 114.518753,110.018799 113.369164,110.761093 
	C113.721298,110.913841 114.073425,111.066597 114.425560,111.219345 
	C112.266594,115.488564 110.107635,119.757782 107.445999,124.153770 
	C106.962624,123.768143 106.479256,123.382515 106.260948,122.890770 
	C106.175079,122.928604 106.089211,122.966438 105.328880,122.924767 
M261.301971,258.866760 
	C260.131500,257.856201 259.079681,256.640442 257.764618,255.879929 
	C255.388336,254.505707 254.950760,256.050995 254.278107,258.019714 
	C252.964874,259.012970 251.604645,259.957153 250.423920,261.088654 
	C250.325012,261.183472 251.600327,263.270264 251.954391,263.189636 
	C254.344360,262.645416 256.658051,261.766174 259.638550,260.942963 
	C260.427338,260.296661 261.216095,259.650360 262.271149,258.894745 
	C262.179352,258.928162 262.087585,258.961578 261.301971,258.866760 
M117.301964,258.866760 
	C116.131485,257.856201 115.079681,256.640442 113.764603,255.879898 
	C111.388290,254.505646 110.950752,256.050995 110.278091,258.019714 
	C108.964867,259.012970 107.604630,259.957123 106.423904,261.088654 
	C106.324997,261.183441 107.600342,263.270233 107.954399,263.189606 
	C110.344383,262.645386 112.658089,261.766174 115.638649,260.942993 
	C116.427536,260.296692 117.216423,259.650391 118.271492,258.894684 
	C118.179573,258.928101 118.087646,258.961548 117.301964,258.866760 
M159.529205,73.566071 
	C160.559647,70.197014 158.224960,70.159889 156.000000,70.000015 
	C156.000000,70.000015 155.992065,69.994034 155.885742,69.346573 
	C154.963318,69.701607 154.040909,70.056633 153.118484,70.411667 
	C153.822678,71.254524 154.376419,72.358009 155.269547,72.873611 
	C156.361679,73.504089 157.738358,73.641655 158.433258,74.069397 
	C158.115646,74.372673 157.798035,74.675949 157.480438,74.979225 
	C157.686005,75.156525 157.891571,75.333824 158.097137,75.511124 
	C158.400742,75.010170 158.704330,74.509224 159.529205,73.566071 
M303.528809,73.566277 
	C304.559937,70.197037 302.225067,70.159973 300.000000,70.000084 
	C300.000000,70.000084 299.992676,69.994019 299.886047,69.346535 
	C298.963531,69.701508 298.041016,70.056488 297.118500,70.411461 
	C297.822632,71.254379 298.376312,72.357918 299.269409,72.873573 
	C300.361450,73.504074 301.738098,73.641655 302.433044,74.069427 
	C302.115509,74.372726 301.798004,74.676018 301.480469,74.979317 
	C301.686035,75.156586 301.891602,75.333855 302.097168,75.511131 
	C302.400574,75.010178 302.703949,74.509224 303.528809,73.566277 
M12.000024,70.000038 
	C12.000024,70.000038 11.992258,69.994034 11.885832,69.346565 
	C10.963385,69.701591 10.040937,70.056618 9.118490,70.411644 
	C9.822686,71.254501 10.376416,72.357994 11.269539,72.873611 
	C12.361636,73.504097 13.738300,73.641663 14.433193,74.069412 
	C14.115604,74.372696 13.798015,74.675980 13.480426,74.979263 
	C13.686002,75.156555 13.891578,75.333839 14.097154,75.511131 
	C14.400721,75.010178 14.704288,74.509224 15.529163,73.566116 
	C16.559671,70.197067 14.225026,70.159866 12.000024,70.000038 
M12.000024,214.000000 
	C12.000024,214.000000 11.992259,213.994019 11.885821,213.346542 
	C10.963377,213.701584 10.040934,214.056610 9.118491,214.411652 
	C9.822680,215.254517 10.376410,216.357986 11.269523,216.873596 
	C12.361628,217.504074 13.738294,217.641647 14.433193,218.069382 
	C14.115610,218.372665 13.798028,218.675949 13.480453,218.979248 
	C13.686023,219.156525 13.891593,219.333817 14.097161,219.511093 
	C14.400726,219.010147 14.704290,218.509216 15.529175,217.566116 
	C16.559656,214.197083 14.225022,214.159851 12.000024,214.000000 
M261.301971,114.866592 
	C260.131470,113.856087 259.079651,112.640381 257.764557,111.879898 
	C255.388260,110.505714 254.950745,112.051041 254.278091,114.019737 
	C252.964874,115.012962 251.604660,115.957138 250.423935,117.088654 
	C250.325012,117.183441 251.600311,119.270256 251.954376,119.189636 
	C254.344345,118.645432 256.658051,117.766205 259.638550,116.943039 
	C260.427338,116.296722 261.216125,115.650414 262.271149,114.894829 
	C262.179352,114.928055 262.087585,114.961288 261.301971,114.866592 
M300.000000,214.000061 
	C300.000000,214.000061 299.992676,213.994019 299.886047,213.346573 
	C298.963531,213.701569 298.041016,214.056580 297.118500,214.411591 
	C297.822662,215.254471 298.376373,216.357971 299.269501,216.873611 
	C300.361511,217.504074 301.738129,217.641632 302.432983,218.069412 
	C302.115448,218.372726 301.797913,218.676041 301.480377,218.979355 
	C301.685974,219.156616 301.891541,219.333878 302.097137,219.511154 
	C302.400543,219.010193 302.703918,218.509232 303.528839,217.566315 
	C304.560028,214.197037 302.225006,214.160034 300.000000,214.000061 
M26.734798,203.993515 
	C27.912880,203.870499 29.090961,203.747498 30.269043,203.624481 
	C30.304621,203.000473 30.340199,202.376450 30.375774,201.752441 
	C27.800289,201.397827 25.224802,201.043213 22.649317,200.688614 
	C22.486275,201.182037 22.323233,201.675446 22.160191,202.168869 
	C23.770056,203.296951 25.379921,204.425018 26.512808,205.218872 
	C26.504848,205.199890 26.252981,204.599548 26.000000,204.000000 
	C26.000000,204.000000 25.999113,204.001221 26.734798,203.993515 
M26.734797,59.993492 
	C27.912880,59.870487 29.090961,59.747482 30.269045,59.624474 
	C30.304619,59.000465 30.340193,58.376453 30.375769,57.752441 
	C27.800278,57.397839 25.224787,57.043240 22.649296,56.688637 
	C22.483776,57.184505 22.318256,57.680374 22.152737,58.176243 
	C23.766623,59.300346 25.380510,60.424450 26.509430,61.210762 
	C26.504848,61.199848 26.252983,60.599491 26.000000,60.000000 
	C26.000000,60.000000 25.999113,60.001156 26.734797,59.993492 
M314.734497,203.993500 
	C315.912659,203.870544 317.090820,203.747589 318.268982,203.624619 
	C318.304596,203.000656 318.340240,202.376678 318.375885,201.752701 
	C315.800385,201.397919 313.224915,201.043121 310.649445,200.688339 
	C310.483704,201.184433 310.317963,201.680511 310.152222,202.176605 
	C311.766327,203.300552 313.380463,204.424500 314.509277,205.210541 
	C314.504852,205.199982 314.253052,204.599594 314.000000,204.000000 
	C314.000000,204.000000 313.998779,204.001221 314.734497,203.993500 
M314.734497,59.993496 
	C315.912659,59.870533 317.090820,59.747570 318.268982,59.624607 
	C318.304596,59.000626 318.340210,58.376640 318.375854,57.752659 
	C315.800354,57.397915 313.224854,57.043167 310.649353,56.688423 
	C310.602875,57.067238 310.556366,57.446056 310.509888,57.824875 
	C311.936005,59.133659 313.362122,60.442440 314.703705,61.673641 
	C314.504944,61.199856 314.253082,60.599491 314.000000,60.000000 
	C314.000000,60.000000 313.998779,60.001163 314.734497,59.993496 
M170.734848,59.993496 
	C171.912918,59.870480 173.090988,59.747463 174.269073,59.624447 
	C174.304642,59.000443 174.340210,58.376434 174.375778,57.752426 
	C171.800278,57.397839 169.224777,57.043251 166.649277,56.688663 
	C166.483765,57.184525 166.318237,57.680389 166.152725,58.176250 
	C167.766617,59.300354 169.380524,60.424454 170.509369,61.210712 
	C170.504837,61.199898 170.253036,60.599514 170.000000,60.000000 
	C170.000000,60.000000 169.999161,60.001160 170.734848,59.993496 
M166.141281,204.494186 
	C166.427734,204.663940 166.714188,204.833694 167.421539,205.590866 
	C168.591949,205.916275 169.762375,206.241669 171.387497,207.012589 
	C177.107285,210.400452 182.939072,213.616638 188.501694,217.245438 
	C191.481430,219.189270 193.799881,218.848221 196.656296,217.115738 
	C204.614853,212.288742 212.728546,207.718033 220.755524,203.002762 
	C221.887329,202.337921 223.240601,201.650665 223.874466,200.601212 
	C228.636520,192.716888 233.243835,184.739120 238.665604,175.482681 
	C236.113678,176.732437 234.953690,177.218750 233.872864,177.842316 
	C221.344955,185.070160 208.852325,192.359787 196.277954,199.505615 
	C194.833572,200.326447 192.474533,201.241440 191.356659,200.626770 
	C187.348755,198.423004 183.692062,195.580490 180.677246,192.873215 
	C182.923019,193.838806 185.386642,194.487381 187.362762,195.845367 
	C190.222824,197.810837 192.496262,197.480408 195.363647,195.760483 
	C209.189194,187.467484 223.062347,179.245758 237.103195,171.325974 
	C240.245453,169.553574 241.080231,167.591553 241.011566,164.261917 
	C240.819214,154.935562 240.952728,145.602646 240.935440,136.272354 
	C240.932983,134.946701 241.247467,133.376282 240.668182,132.334595 
	C236.135300,124.183411 231.419937,116.133705 226.760880,108.052681 
	C225.824829,123.974869 225.659775,139.577484 225.940094,155.172119 
	C226.010773,159.104355 224.652023,161.126526 221.407242,162.980591 
	C207.699066,170.813354 194.096008,178.832291 180.544434,186.933578 
	C179.128250,187.780197 178.306488,189.621124 176.582825,191.217239 
	C172.950195,189.524734 169.208145,188.030487 165.707657,186.098541 
	C158.386169,182.057800 151.192062,177.786270 142.988617,173.057922 
	C142.988617,178.896317 142.808594,183.498001 143.100525,188.069580 
	C143.185852,189.405914 144.312515,191.145203 145.477661,191.865753 
	C152.235519,196.044937 159.147446,199.975006 166.000336,204.000046 
	C166.000336,204.000046 166.009323,203.995102 166.141281,204.494186 
M181.275360,46.999901 
	C180.780869,46.937878 180.189636,46.669769 179.808289,46.848785 
	C177.960175,47.716328 176.168396,48.703884 174.356644,49.648914 
	C175.639374,51.090702 176.699768,53.391045 178.251816,53.792995 
	C181.346664,54.594509 182.139954,52.184753 182.006882,49.491943 
	C181.965820,48.661190 181.996246,47.826904 182.519867,47.243458 
	C184.417252,46.755413 186.314636,46.267368 188.212021,45.779324 
	C188.317215,45.322041 188.422424,44.864761 188.527618,44.407478 
	C186.103149,43.443932 183.678665,42.480389 181.254196,41.516838 
	C181.504745,43.346561 181.755295,45.176289 181.275360,46.999901 
M37.275349,46.999897 
	C36.780857,46.937874 36.189625,46.669769 35.808281,46.848782 
	C33.960175,47.716335 32.168407,48.703892 30.356676,49.648926 
	C31.639408,51.090706 32.699791,53.391045 34.251820,53.792992 
	C37.346687,54.594501 38.139938,52.184750 38.006851,49.491940 
	C37.965790,48.661186 37.996243,47.826904 38.519886,47.243462 
	C40.417255,46.755394 42.314621,46.267326 44.211990,45.779259 
	C44.317200,45.322002 44.422409,44.864742 44.527615,44.407486 
	C42.103149,43.443939 39.678684,42.480389 37.254219,41.516842 
	C37.504753,43.346565 37.755283,45.176289 37.275349,46.999897 
M37.275349,190.999908 
	C36.780857,190.937881 36.189617,190.669754 35.808281,190.848770 
	C33.960178,191.716354 32.168404,192.703918 30.356674,193.648956 
	C31.639427,195.090729 32.699841,197.391052 34.251881,197.792984 
	C37.346825,198.594467 38.139915,196.184631 38.006840,193.491867 
	C37.965786,192.661102 37.996243,191.826813 38.519882,191.243423 
	C40.417255,190.755356 42.314629,190.267288 44.212002,189.779205 
	C44.317211,189.321960 44.422421,188.864716 44.527630,188.407471 
	C42.103157,187.443924 39.678680,186.480377 37.254208,185.516830 
	C37.504745,187.346558 37.755283,189.176300 37.275349,190.999908 
M294.622375,224.046310 
	C295.517090,224.239746 296.411804,224.433197 297.965240,224.769058 
	C296.611572,221.968201 295.532013,219.734528 294.452454,217.500854 
	C293.971375,217.547043 293.490326,217.593231 293.009247,217.639420 
	C293.009247,219.106155 293.009247,220.572891 292.204956,222.022491 
	C288.294495,221.730728 285.647461,222.793335 286.543732,227.652725 
	C285.605530,227.790298 284.493591,227.619644 284.080322,228.078400 
	C282.974152,229.306396 282.167511,230.804260 281.241882,232.194916 
	C282.822510,233.072998 284.402527,234.660858 285.983917,234.662216 
	C288.332703,234.664215 293.807739,226.744370 294.622375,224.046310 
M294.622375,80.046318 
	C295.517090,80.239746 296.411804,80.433174 297.965485,80.769073 
	C296.611725,77.968102 295.532135,75.734451 294.452576,73.500801 
	C293.971466,73.544754 293.490356,73.588699 293.009247,73.632652 
	C293.009247,75.101646 293.009247,76.570648 292.204956,78.022491 
	C288.294495,77.730743 285.647491,78.793396 286.543701,83.652733 
	C285.605469,83.790291 284.493469,83.619614 284.080261,84.078369 
	C282.974091,85.306404 282.167511,86.804306 281.241882,88.194984 
	C282.822510,89.073036 284.402557,90.660866 285.983887,90.662140 
	C288.332855,90.664032 293.807739,82.744476 294.622375,80.046318 
M220.005539,157.243942 
	C220.632309,155.316986 221.777512,153.396591 221.801971,151.462006 
	C221.964142,138.641251 221.022171,125.740997 222.148087,113.017807 
	C223.120224,102.032318 219.724182,95.376755 209.508347,91.247192 
	C202.930099,88.588051 197.250046,82.754951 190.577484,81.512337 
	C181.390991,79.801575 171.647110,81.083786 160.703445,81.083786 
	C174.889404,89.180954 187.638901,96.670044 200.615662,103.742096 
	C204.760529,106.000969 206.517853,108.506393 206.403030,113.412018 
	C206.048569,128.557968 206.262558,143.717484 206.290451,158.871689 
	C206.293549,160.550949 206.520142,162.229782 206.695374,164.623032 
	C211.522003,161.975693 215.440918,159.826218 220.005539,157.243942 
M124.007820,164.500061 
	C124.007820,175.333206 123.953072,186.166977 124.073570,196.998779 
	C124.089554,198.435211 124.565300,200.591919 125.558701,201.179138 
	C134.836304,206.663269 144.267593,211.887955 153.676727,217.147797 
	C154.371002,217.535904 155.237625,217.803543 156.025681,217.807404 
	C165.235718,217.852539 174.446060,217.836319 185.072418,217.836319 
	C182.274902,216.129562 180.777527,215.154388 179.224289,214.278198 
	C167.444138,207.632874 155.725754,200.871948 143.820084,194.459000 
	C140.349274,192.589417 138.918091,190.575546 138.991440,186.468903 
	C139.274094,170.640869 139.113815,154.804764 139.092255,138.971710 
	C139.090393,137.596588 138.895493,136.221725 138.747864,134.293182 
	C134.160172,136.922516 130.027771,139.039276 126.214294,141.626175 
	C125.033195,142.427383 124.168503,144.483627 124.105453,146.004501 
	C123.864059,151.827728 124.007820,157.666946 124.007820,164.500061 
M120.107155,188.136475 
	C120.107300,174.142044 120.195717,160.146622 120.041237,146.153900 
	C120.005661,142.931824 120.948875,140.893494 123.829163,139.335083 
	C128.802963,136.643967 133.583664,133.597656 138.466690,130.736755 
	C148.621460,124.787170 158.790176,118.861382 169.624405,112.533791 
	C165.208939,109.906349 161.652588,107.411057 157.763779,105.649895 
	C156.043091,104.870621 153.223312,104.825203 151.627167,105.727943 
	C136.994949,114.003624 122.479286,122.489731 108.067635,131.144287 
	C106.596115,132.027985 105.237854,134.385681 105.174110,136.109192 
	C104.872604,144.261444 105.368294,152.448730 104.929832,160.588531 
	C104.608780,166.548660 106.109520,171.600632 109.309921,176.524277 
	C112.856621,181.980652 115.947952,187.733032 119.237564,193.356506 
	C119.527443,193.224106 119.817329,193.091690 120.107208,192.959290 
	C120.107208,191.644562 120.107208,190.329849 120.107155,188.136475 
M137.512817,232.788147 
	C143.167145,239.541748 144.090378,230.141953 147.704346,229.612213 
	C148.620453,229.477905 150.128693,225.886902 149.684769,225.392349 
	C148.412308,223.974777 146.196381,222.507828 144.511795,222.675186 
	C143.410126,222.784622 142.587524,225.703232 141.639938,227.363571 
	C141.399918,227.194229 141.159912,227.024887 140.919891,226.855545 
	C139.676392,228.598267 138.432892,230.340973 137.512817,232.788147 
M49.589207,182.802917 
	C49.205677,182.798386 48.822151,182.793854 48.438622,182.789322 
	C48.437077,182.948715 48.424648,183.246613 48.435558,183.247467 
	C48.817101,183.277435 49.200832,183.279465 49.589207,182.802917 
M193.549973,39.288567 
	C193.284653,39.009457 193.019333,38.730343 192.753998,38.451225 
	C192.639206,38.561722 192.418015,38.761513 192.424988,38.769814 
	C192.671906,39.063950 192.940201,39.340137 193.549973,39.288567 
M49.589191,38.802940 
	C49.205662,38.798401 48.822132,38.793861 48.438602,38.789326 
	C48.437057,38.948723 48.424633,39.246632 48.435543,39.247490 
	C48.817081,39.277462 49.200817,39.279472 49.589191,38.802940 
M312.194214,64.593063 
	C312.198547,64.208382 312.206604,63.823505 312.187195,63.440029 
	C312.186676,63.429783 311.749573,63.423981 311.748810,63.433945 
	C311.719421,63.817696 311.717224,64.203529 312.194214,64.593063 
M24.589527,63.802689 
	C24.205917,63.798176 23.822308,63.793663 23.438698,63.789150 
	C23.437136,63.948582 23.424706,64.246559 23.435583,64.247406 
	C23.817215,64.277344 24.201038,64.279358 24.589527,63.802689 
M168.550293,64.288445 
	C168.284943,64.009293 168.019577,63.730145 167.754227,63.451004 
	C167.639404,63.561520 167.418182,63.761364 167.425125,63.769638 
	C167.672073,64.063805 167.940414,64.340019 168.550293,64.288445 
M311.405945,208.195770 
	C311.789490,208.200104 312.173065,208.204437 312.556610,208.208771 
	C312.558197,208.049316 312.570618,207.751282 312.559814,207.750427 
	C312.177979,207.720627 311.793945,207.718704 311.405945,208.195770 
M24.550261,208.288452 
	C24.284914,208.009293 24.019569,207.730148 23.754217,207.450989 
	C23.639387,207.561493 23.418159,207.761322 23.425110,207.769623 
	C23.672052,208.063797 23.940384,208.340027 24.550261,208.288452 
M17.527611,206.640244 
	C17.474272,206.845825 17.420933,207.051392 17.367598,207.256973 
	C17.498262,207.124893 17.628927,206.992813 17.527611,206.640244 
M305.751770,206.829376 
	C305.589081,206.883194 305.426361,206.936996 305.263672,206.990829 
	C305.427277,207.043304 305.590912,207.095779 305.751770,206.829376 
M114.165611,253.746719 
	C114.113251,253.587082 114.060883,253.427460 114.008530,253.267822 
	C113.956787,253.428818 113.905037,253.589798 114.165611,253.746719 
M123.723457,254.177017 
	C123.614738,254.026840 123.506012,253.876648 123.397278,253.726471 
	C123.418442,253.934357 123.439606,254.142242 123.723457,254.177017 
M257.832245,253.258881 
	C257.884521,253.418747 257.936829,253.578613 257.989075,253.738480 
	C258.040863,253.577682 258.092651,253.416885 257.832245,253.258881 
M267.251251,254.168823 
	C267.411316,254.115982 267.571411,254.063141 267.731476,254.010315 
	C267.571106,253.959076 267.410736,253.907852 267.251251,254.168823 
M21.170366,210.745605 
	C21.116737,210.582840 21.063108,210.420074 21.009480,210.257309 
	C20.956867,210.420883 20.904255,210.584473 21.170366,210.745605 
M308.829010,210.248276 
	C308.882843,210.411041 308.936676,210.573792 308.990540,210.736542 
	C309.042999,210.572861 309.095459,210.409195 308.829010,210.248276 
M11.270024,221.825760 
	C11.378610,221.975815 11.487194,222.125870 11.595782,222.275925 
	C11.574574,222.067947 11.553366,221.859955 11.270024,221.825760 
M255.167145,265.742737 
	C255.114151,265.581512 255.061157,265.420258 255.008163,265.259033 
	C254.956345,265.420898 254.904526,265.582733 255.167145,265.742737 
M46.359806,185.521439 
	C46.154270,185.468018 45.948738,185.414612 45.743202,185.361191 
	C45.875225,185.491882 46.007248,185.622559 46.359806,185.521439 
M110.644852,265.471741 
	C110.847198,265.524750 111.049538,265.577759 111.251877,265.630737 
	C111.121590,265.500977 110.991302,265.371185 110.644852,265.471741 
M299.723267,222.177078 
	C299.614563,222.026932 299.505890,221.876785 299.397186,221.726624 
	C299.418335,221.934464 299.439484,222.142303 299.723267,222.177078 
M165.359818,66.521439 
	C165.154282,66.468018 164.948730,66.414597 164.743195,66.361176 
	C164.875229,66.491875 165.007263,66.622574 165.359818,66.521439 
M299.740753,77.834305 
	C299.580994,77.886841 299.421234,77.939377 299.261475,77.991913 
	C299.421814,78.043350 299.582184,78.094788 299.740753,77.834305 
M11.251280,78.168892 
	C11.411284,78.116066 11.571289,78.063240 11.731293,78.010406 
	C11.570976,77.959190 11.410661,77.907967 11.251280,78.168892 
M17.527588,62.640224 
	C17.474262,62.845810 17.420935,63.051395 17.367609,63.256981 
	C17.498272,63.124886 17.628935,62.992786 17.527588,62.640224 
M257.832336,109.258888 
	C257.884552,109.418739 257.936768,109.578590 257.988983,109.738441 
	C258.040802,109.577682 258.092621,109.416931 257.832336,109.258888 
M308.639801,66.472534 
	C308.845428,66.525864 309.051056,66.579185 309.256683,66.632507 
	C309.124573,66.501831 308.992432,66.371147 308.639801,66.472534 
M267.741028,109.834190 
	C267.581177,109.886742 267.421356,109.939285 267.261505,109.991821 
	C267.421936,110.043282 267.582336,110.094734 267.741028,109.834190 
M190.359802,41.521469 
	C190.154266,41.468037 189.948730,41.414600 189.743195,41.361172 
	C189.875198,41.491875 190.007217,41.622578 190.359802,41.521469 
M45.829025,41.248310 
	C45.882854,41.411049 45.936684,41.573788 45.990517,41.736526 
	C46.042988,41.572853 46.095455,41.409180 45.829025,41.248310 
M20.639837,66.472511 
	C20.845446,66.525841 21.051054,66.579163 21.256666,66.632484 
	C21.124550,66.501808 20.992435,66.371132 20.639837,66.472511 
M161.527573,62.640228 
	C161.474258,62.845814 161.420929,63.051399 161.367615,63.256985 
	C161.498260,63.124889 161.628906,62.992794 161.527573,62.640228 
M186.735016,38.179569 
	C186.623764,38.026230 186.512497,37.872887 186.401245,37.719547 
	C186.423386,37.932217 186.445526,38.144886 186.735016,38.179569 
M104.349129,119.526939 
	C104.149513,119.475227 103.949890,119.423515 103.750275,119.371796 
	C103.878181,119.498482 104.006088,119.625175 104.349129,119.526939 
M254.821762,121.725235 
	C254.972961,121.615440 255.124161,121.505653 255.275375,121.395866 
	C255.066071,121.417397 254.856781,121.438934 254.821762,121.725235 
M42.271496,37.820709 
	C42.382687,37.974113 42.493877,38.127514 42.605068,38.280918 
	C42.583031,38.068253 42.560993,37.855583 42.271496,37.820709 
M305.478668,63.360146 
	C305.532074,63.154621 305.585480,62.949097 305.638885,62.743572 
	C305.508240,62.875584 305.377563,63.007599 305.478668,63.360146 
M42.734993,182.179581 
	C42.623741,182.026230 42.512489,181.872894 42.401241,181.719543 
	C42.423378,181.932220 42.445518,182.144913 42.734993,182.179581 
M313.482422,54.588272 
	C313.482422,54.588272 313.420258,54.482094 313.482422,54.588272 
M307.481995,60.579304 
	C307.481995,60.579304 307.420532,60.475182 307.481995,60.579304 
M163.580551,60.514191 
	C163.580551,60.514191 163.475601,60.574329 163.580551,60.514191 
M19.514137,60.416195 
	C19.514137,60.416195 19.575520,60.520435 19.514137,60.416195 
M44.415314,35.481670 
	C44.415314,35.481670 44.519905,35.420990 44.415314,35.481670 
M169.581879,54.520309 
	C169.581879,54.520309 169.476181,54.583195 169.581879,54.520309 
M25.415548,54.487652 
	C25.415548,54.487652 25.521612,54.425236 25.415548,54.487652 
M188.580521,35.514153 
	C188.580521,35.514153 188.475571,35.574303 188.580521,35.514153 
M44.580486,179.514160 
	C44.580486,179.514160 44.475544,179.574341 44.580486,179.514160 
M25.482391,198.588287 
	C25.482391,198.588287 25.420271,198.482117 25.482391,198.588287 
M313.415527,198.487625 
	C313.415527,198.487625 313.521606,198.425232 313.415527,198.487625 
M19.580544,204.514175 
	C19.580544,204.514175 19.475618,204.574356 19.580544,204.514175 
M307.580536,204.514206 
	C307.580536,204.514206 307.475586,204.574356 307.580536,204.514206 
z"/>
<path fill="#FFFFFF" opacity="1.000000" stroke="none" 
	d="
M330.016296,186.002060 
	C330.348053,184.268951 330.967621,182.536148 330.969482,180.802689 
	C331.017334,136.177170 331.000793,91.551567 330.963318,46.113194 
	C330.626282,44.200977 330.321289,43.101559 330.016296,42.002140 
	C330.348083,40.273666 330.955048,38.547123 330.967194,36.816406 
	C331.048737,25.190538 331.003876,13.563783 331.000000,1.468657 
	C358.972992,1.000000 386.946014,1.000000 414.959503,1.000000 
	C414.959503,96.214378 414.959503,191.428787 414.959503,287.000000 
	C387.313446,287.000000 359.625397,287.000000 331.468658,287.000000 
	C330.998474,254.975327 330.996918,222.950653 330.963318,190.113174 
	C330.626251,188.200928 330.321259,187.101501 330.016296,186.002060 
z"/>
<path fill="#450A0A" opacity="1.000000" stroke="none" 
	d="
M153.994263,81.021614 
	C169.181183,89.913788 184.322174,98.886230 199.598068,107.622849 
	C202.291840,109.163475 203.321533,110.813339 203.132034,113.858261 
	C202.866913,118.118401 203.065170,122.407364 203.065170,127.426613 
	C194.154968,122.321236 185.823166,117.607285 177.551910,112.789413 
	C170.662827,108.776649 163.935989,104.472946 156.926239,100.689049 
	C155.325806,99.825119 152.441147,99.815872 150.854233,100.692520 
	C138.204834,107.680367 125.733261,114.989632 113.183998,122.159790 
	C111.772873,122.966057 110.217705,123.520241 108.370956,124.111237 
	C108.012581,124.031143 107.948669,124.026993 107.948669,124.026993 
	C110.107635,119.757782 112.266594,115.488564 114.425560,111.219345 
	C114.073425,111.066597 113.721298,110.913841 113.369164,110.761093 
	C114.518753,110.018799 116.343681,109.520416 116.713493,108.496490 
	C120.427307,98.213783 130.032776,94.868454 138.784515,89.502983 
	C143.277634,86.795174 147.210190,84.434448 151.374283,82.050255 
	C151.605804,82.026779 151.970200,81.737267 152.241608,81.705879 
	C153.006760,81.456863 153.500519,81.239243 153.994263,81.021614 
z"/>
<path fill="#71C0C3" opacity="1.000000" stroke="none" 
	d="
M219.682693,157.460358 
	C215.440918,159.826218 211.522003,161.975693 206.695374,164.623032 
	C206.520142,162.229782 206.293549,160.550949 206.290451,158.871689 
	C206.262558,143.717484 206.048569,128.557968 206.403030,113.412018 
	C206.517853,108.506393 204.760529,106.000969 200.615662,103.742096 
	C187.638901,96.670044 174.889404,89.180954 160.703445,81.083786 
	C171.647110,81.083786 181.390991,79.801575 190.577484,81.512337 
	C197.250046,82.754951 202.930099,88.588051 209.508347,91.247192 
	C219.724182,95.376755 223.120224,102.032318 222.148087,113.017807 
	C221.022171,125.740997 221.964142,138.641251 221.801971,151.462006 
	C221.777512,153.396591 220.632309,155.316986 219.682693,157.460358 
z"/>
<path fill="#450A0A" opacity="1.000000" stroke="none" 
	d="
M177.208939,191.000732 
	C178.306488,189.621124 179.128250,187.780197 180.544434,186.933578 
	C194.096008,178.832291 207.699066,170.813354 221.407242,162.980591 
	C224.652023,161.126526 226.010773,159.104355 225.940094,155.172119 
	C225.659775,139.577484 225.824829,123.974869 226.760880,108.052681 
	C231.419937,116.133705 236.135300,124.183411 240.668182,132.334595 
	C241.247467,133.376282 240.932983,134.946701 240.935440,136.272354 
	C240.952728,145.602646 240.819214,154.935562 241.011566,164.261917 
	C241.080231,167.591553 240.245453,169.553574 237.103195,171.325974 
	C223.062347,179.245758 209.189194,187.467484 195.363647,195.760483 
	C192.496262,197.480408 190.222824,197.810837 187.362762,195.845367 
	C185.386642,194.487381 182.923019,193.838806 180.074600,192.743317 
	C178.717621,192.075851 177.963272,191.538284 177.208939,191.000732 
z"/>
<path fill="#440909" opacity="1.000000" stroke="none" 
	d="
M124.007820,164.000122 
	C124.007820,157.666946 123.864059,151.827728 124.105453,146.004501 
	C124.168503,144.483627 125.033195,142.427383 126.214294,141.626175 
	C130.027771,139.039276 134.160172,136.922516 138.747864,134.293182 
	C138.895493,136.221725 139.090393,137.596588 139.092255,138.971710 
	C139.113815,154.804764 139.274094,170.640869 138.991440,186.468903 
	C138.918091,190.575546 140.349274,192.589417 143.820084,194.459000 
	C155.725754,200.871948 167.444138,207.632874 179.224289,214.278198 
	C180.777527,215.154388 182.274902,216.129562 185.072418,217.836319 
	C174.446060,217.836319 165.235718,217.852539 156.025681,217.807404 
	C155.237625,217.803543 154.371002,217.535904 153.676727,217.147797 
	C144.267593,211.887955 134.836304,206.663269 125.558701,201.179138 
	C124.565300,200.591919 124.089554,198.435211 124.073570,196.998779 
	C123.953072,186.166977 124.007820,175.333206 124.007820,164.000122 
z"/>
<path fill="#70C0C3" opacity="1.000000" stroke="none" 
	d="
M120.107178,188.575806 
	C120.107208,190.329849 120.107208,191.644562 120.107208,192.959290 
	C119.817329,193.091690 119.527443,193.224106 119.237564,193.356506 
	C115.947952,187.733032 112.856621,181.980652 109.309921,176.524277 
	C106.109520,171.600632 104.608780,166.548660 104.929832,160.588531 
	C105.368294,152.448730 104.872604,144.261444 105.174110,136.109192 
	C105.237854,134.385681 106.596115,132.027985 108.067635,131.144287 
	C122.479286,122.489731 136.994949,114.003624 151.627167,105.727943 
	C153.223312,104.825203 156.043091,104.870621 157.763779,105.649895 
	C161.652588,107.411057 165.208939,109.906349 169.624405,112.533791 
	C158.790176,118.861382 148.621460,124.787170 138.466690,130.736755 
	C133.583664,133.597656 128.802963,136.643967 123.829163,139.335083 
	C120.948875,140.893494 120.005661,142.931824 120.041237,146.153900 
	C120.195717,160.146622 120.107300,174.142044 120.107178,188.575806 
z"/>
<path fill="#70C0C3" opacity="1.000000" stroke="none" 
	d="
M176.895874,191.108978 
	C177.963272,191.538284 178.717621,192.075851 179.687256,192.796448 
	C183.692062,195.580490 187.348755,198.423004 191.356659,200.626770 
	C192.474533,201.241440 194.833572,200.326447 196.277954,199.505615 
	C208.852325,192.359787 221.344955,185.070160 233.872864,177.842316 
	C234.953690,177.218750 236.113678,176.732437 238.665604,175.482681 
	C233.243835,184.739120 228.636520,192.716888 223.874466,200.601212 
	C223.240601,201.650665 221.887329,202.337921 220.755524,203.002762 
	C212.728546,207.718033 204.614853,212.288742 196.656296,217.115738 
	C193.799881,218.848221 191.481430,219.189270 188.501694,217.245438 
	C182.939072,213.616638 177.107285,210.400452 171.103333,206.448273 
	C170.546722,205.255493 170.274277,204.627029 170.000916,203.999283 
	C170.000000,204.000000 169.998566,204.001831 170.365616,204.000427 
	C171.908859,203.881470 173.085052,203.763901 175.212402,203.551254 
	C172.877518,201.539688 171.305939,200.185715 169.455948,198.591888 
	C168.237061,200.499542 167.122162,202.244431 166.007263,203.989334 
	C159.147446,199.975006 152.235519,196.044937 145.477661,191.865753 
	C144.312515,191.145203 143.185852,189.405914 143.100525,188.069580 
	C142.808594,183.498001 142.988617,178.896317 142.988617,173.057922 
	C151.192062,177.786270 158.386169,182.057800 165.707657,186.098541 
	C169.208145,188.030487 172.950195,189.524734 176.895874,191.108978 
z"/>
<path fill="#E4E7E8" opacity="1.000000" stroke="none" 
	d="
M293.964508,79.980522 
	C293.807739,82.744476 288.332855,90.664032 285.983887,90.662140 
	C284.402557,90.660866 282.822510,89.073036 281.241882,88.194984 
	C282.167511,86.804306 282.974091,85.306404 284.080261,84.078369 
	C284.493469,83.619614 285.605469,83.790291 286.543701,83.652733 
	C285.647491,78.793396 288.294495,77.730743 292.627441,78.317360 
	C293.354767,79.068321 293.659637,79.524422 293.964508,79.980522 
z"/>
<path fill="#E4E7E8" opacity="1.000000" stroke="none" 
	d="
M293.964508,223.980530 
	C293.807739,226.744370 288.332703,234.664215 285.983917,234.662216 
	C284.402527,234.660858 282.822510,233.072998 281.241882,232.194916 
	C282.167511,230.804260 282.974152,229.306396 284.080322,228.078400 
	C284.493591,227.619644 285.605530,227.790298 286.543732,227.652725 
	C285.647461,222.793335 288.294495,221.730728 292.627441,222.317352 
	C293.354767,223.068329 293.659637,223.524429 293.964508,223.980530 
z"/>
<path fill="#E4E7E8" opacity="1.000000" stroke="none" 
	d="
M137.351105,232.435913 
	C138.432892,230.340973 139.676392,228.598267 140.919891,226.855545 
	C141.159912,227.024887 141.399918,227.194229 141.639938,227.363571 
	C142.587524,225.703232 143.410126,222.784622 144.511795,222.675186 
	C146.196381,222.507828 148.412308,223.974777 149.684769,225.392349 
	C150.128693,225.886902 148.620453,229.477905 147.704346,229.612213 
	C144.090378,230.141953 143.167145,239.541748 137.351105,232.435913 
z"/>
<path fill="#E4E5E6" opacity="1.000000" stroke="none" 
	d="
M151.142761,82.073730 
	C147.210190,84.434448 143.277634,86.795174 139.026337,89.230873 
	C136.056519,85.506493 136.552139,84.670654 142.332794,83.630341 
	C141.865585,79.359985 143.919968,77.474022 148.634735,78.327980 
	C149.351898,79.076660 149.647263,79.530708 149.994614,80.298264 
	C150.411987,81.099091 150.777374,81.586418 151.142761,82.073730 
z"/>
<path fill="#E4E7E8" opacity="1.000000" stroke="none" 
	d="
M277.006104,91.004402 
	C277.443390,91.967941 277.880646,92.931473 278.658966,93.947479 
	C279.000000,93.999954 278.995422,93.995392 278.995422,93.995392 
	C279.726715,96.130127 276.081238,103.187241 274.171204,102.795143 
	C272.438324,102.439407 269.703308,100.806313 269.645294,99.626465 
	C269.483154,96.329445 271.834412,94.883682 275.431213,95.626198 
	C275.781555,94.215691 276.122162,92.844513 276.731384,91.236664 
	C277.000000,91.000000 277.006104,91.004402 277.006104,91.004402 
z"/>
<path fill="#E4E7E8" opacity="1.000000" stroke="none" 
	d="
M133.006073,235.004395 
	C133.443344,235.967926 133.880615,236.931458 134.658936,237.947495 
	C135.000000,238.000000 134.995407,237.995407 134.995407,237.995407 
	C135.726715,240.130112 132.081284,247.187210 130.171234,246.795151 
	C128.438354,246.439438 126.315140,245.073074 125.564728,243.557693 
	C124.556366,241.521423 127.551979,239.500122 131.456238,239.525620 
	C131.781586,238.215775 132.122147,236.844620 132.731354,235.236725 
	C133.000000,235.000000 133.006073,235.004395 133.006073,235.004395 
z"/>
<path fill="#E4E7E8" opacity="1.000000" stroke="none" 
	d="
M277.006104,235.004395 
	C277.443359,235.967926 277.880615,236.931442 278.658936,237.947479 
	C279.000000,238.000000 278.995422,237.995407 278.995422,237.995407 
	C279.726715,240.130157 276.081238,247.187241 274.171204,246.795151 
	C272.438324,246.439423 270.315094,245.073059 269.564667,243.557663 
	C268.556305,241.521439 271.552094,239.500092 275.456177,239.525650 
	C275.781555,238.215775 276.122162,236.844604 276.731384,235.236710 
	C277.000000,235.000000 277.006104,235.004395 277.006104,235.004395 
z"/>
<path fill="#E4E6E7" opacity="1.000000" stroke="none" 
	d="
M325.994019,190.994125 
	C325.996277,191.826797 325.965790,192.661087 326.006836,193.491852 
	C326.139923,196.184616 325.346802,198.594498 322.251862,197.793015 
	C320.699829,197.391113 319.639465,195.090729 318.356720,193.648926 
	C320.168427,192.703873 321.960175,191.716309 323.808289,190.848755 
	C324.189636,190.669739 324.780853,190.937866 325.637695,190.999924 
	C326.000000,190.999954 325.993988,190.994125 325.994019,190.994125 
z"/>
<path fill="#E4E6E7" opacity="1.000000" stroke="none" 
	d="
M37.993954,190.994141 
	C37.996243,191.826813 37.965786,192.661102 38.006840,193.491867 
	C38.139915,196.184631 37.346825,198.594467 34.251881,197.792984 
	C32.699841,197.391052 31.639427,195.090729 30.356674,193.648956 
	C32.168404,192.703918 33.960178,191.716354 35.808281,190.848770 
	C36.189617,190.669754 36.780857,190.937881 37.637730,190.999939 
	C38.000111,190.999969 37.993954,190.994141 37.993954,190.994141 
z"/>
<path fill="#E4E6E7" opacity="1.000000" stroke="none" 
	d="
M37.993954,46.994236 
	C37.996243,47.826904 37.965790,48.661186 38.006851,49.491940 
	C38.139938,52.184750 37.346687,54.594501 34.251820,53.792992 
	C32.699791,53.391045 31.639408,51.090706 30.356676,49.648926 
	C32.168407,48.703892 33.960175,47.716335 35.808281,46.848782 
	C36.189625,46.669769 36.780857,46.937874 37.637737,46.999886 
	C38.000126,46.999874 37.993954,46.994236 37.993954,46.994236 
z"/>
<path fill="#E4E6E7" opacity="1.000000" stroke="none" 
	d="
M181.993927,46.994236 
	C181.996246,47.826904 181.965820,48.661190 182.006882,49.491943 
	C182.139954,52.184753 181.346664,54.594509 178.251816,53.792995 
	C176.699768,53.391045 175.639374,51.090702 174.356644,49.648914 
	C176.168396,48.703884 177.960175,47.716328 179.808289,46.848785 
	C180.189636,46.669769 180.780869,46.937878 181.637695,46.999893 
	C182.000015,46.999889 181.993927,46.994236 181.993927,46.994236 
z"/>
<path fill="#E4E6E7" opacity="1.000000" stroke="none" 
	d="
M325.994019,46.994183 
	C325.996277,47.826851 325.965790,48.661140 326.006836,49.491894 
	C326.139954,52.184700 325.346771,54.594498 322.251862,53.792999 
	C320.699829,53.391060 319.639435,51.090714 318.356689,49.648941 
	C320.168427,48.703896 321.960175,47.716335 323.808289,46.848770 
	C324.189636,46.669758 324.780853,46.937874 325.637695,46.999874 
	C326.000000,46.999847 325.993988,46.994183 325.994019,46.994183 
z"/>
<path fill="#E5E8E9" opacity="1.000000" stroke="none" 
	d="
M38.002972,47.002945 
	C37.755283,45.176289 37.504753,43.346565 37.254219,41.516842 
	C39.678684,42.480389 42.103149,43.443939 44.527615,44.407486 
	C44.422409,44.864742 44.317200,45.322002 44.211990,45.779259 
	C42.314621,46.267326 40.417255,46.755394 38.256920,47.118851 
	C37.993954,46.994236 38.000126,46.999874 38.002972,47.002945 
z"/>
<path fill="#E5E8E9" opacity="1.000000" stroke="none" 
	d="
M38.002964,191.002991 
	C37.755283,189.176300 37.504745,187.346558 37.254208,185.516830 
	C39.678680,186.480377 42.103157,187.443924 44.527630,188.407471 
	C44.422421,188.864716 44.317211,189.321960 44.212002,189.779205 
	C42.314629,190.267288 40.417255,190.755356 38.256920,191.118774 
	C37.993954,190.994141 38.000111,190.999969 38.002964,191.002991 
z"/>
<path fill="#E5E8E9" opacity="1.000000" stroke="none" 
	d="
M182.002930,47.002953 
	C181.755295,45.176289 181.504745,43.346561 181.254196,41.516838 
	C183.678665,42.480389 186.103149,43.443932 188.527618,44.407478 
	C188.422424,44.864761 188.317215,45.322041 188.212021,45.779324 
	C186.314636,46.267368 184.417252,46.755413 182.256897,47.118847 
	C181.993927,46.994236 182.000015,46.999889 182.002930,47.002953 
z"/>
<path fill="#E5E8E9" opacity="1.000000" stroke="none" 
	d="
M329.678101,185.856812 
	C330.321259,187.101501 330.626251,188.200928 330.959686,189.643723 
	C330.135803,190.595383 329.283478,191.203674 327.882538,192.203506 
	C328.082031,192.343674 327.310181,191.801285 326.266174,191.126511 
	C325.993988,190.994125 326.000000,190.999954 326.002930,191.002991 
	C325.508972,189.428268 325.012115,187.850510 324.515228,186.272736 
	C326.123444,186.085678 327.731689,185.898621 329.678101,185.856812 
z"/>
<path fill="#69B4B7" opacity="1.000000" stroke="none" 
	d="
M170.001831,203.998566 
	C170.274277,204.627029 170.546722,205.255493 170.875977,206.225510 
	C169.762375,206.241669 168.591949,205.916275 167.102783,205.078857 
	C166.584564,204.296661 166.326324,204.106064 166.009323,203.995102 
	C166.009323,203.995102 166.000336,204.000046 166.003799,203.994690 
	C167.122162,202.244431 168.237061,200.499542 169.455948,198.591888 
	C171.305939,200.185715 172.877518,201.539688 175.212402,203.551254 
	C173.085052,203.763901 171.908859,203.881470 170.314117,203.869736 
	C169.816025,203.692886 169.736496,203.645340 169.656952,203.597794 
	C169.771912,203.731384 169.886871,203.864975 170.001831,203.998566 
z"/>
<path fill="#E5E8E9" opacity="1.000000" stroke="none" 
	d="
M329.678101,41.856865 
	C330.321289,43.101559 330.626282,44.200977 330.959686,45.643738 
	C330.135803,46.595352 329.283447,47.203632 327.882477,48.203465 
	C328.082001,48.343670 327.310150,47.801292 326.266174,47.126549 
	C325.993988,46.994183 326.000000,46.999847 326.002930,47.002926 
	C325.509003,45.428249 325.012115,43.850491 324.515228,42.272736 
	C326.123444,42.085693 327.731689,41.898643 329.678101,41.856865 
z"/>
<path fill="#E5E8E9" opacity="1.000000" stroke="none" 
	d="
M258.996429,116.995407 
	C256.658051,117.766205 254.344345,118.645432 251.954376,119.189636 
	C251.600311,119.270256 250.325012,117.183441 250.423935,117.088654 
	C251.604660,115.957138 252.964874,115.012962 254.751434,114.232483 
	C255.414612,114.702538 255.659897,114.885529 256.031128,115.336426 
	C257.069733,116.120224 258.037903,116.561798 259.003021,117.001892 
	C259.000000,117.000412 258.996429,116.995407 258.996429,116.995407 
z"/>
<path fill="#E5E8E9" opacity="1.000000" stroke="none" 
	d="
M114.996475,260.995361 
	C112.658089,261.766174 110.344383,262.645386 107.954399,263.189606 
	C107.600342,263.270233 106.324997,261.183441 106.423904,261.088654 
	C107.604630,259.957123 108.964867,259.012970 110.751434,258.232422 
	C111.414581,258.702393 111.659843,258.885315 112.031052,259.336182 
	C113.069695,260.120056 114.037842,260.561646 115.003204,261.001617 
	C115.000412,261.000000 114.996475,260.995361 114.996475,260.995361 
z"/>
<path fill="#E5E8E9" opacity="1.000000" stroke="none" 
	d="
M258.996429,260.995361 
	C256.658051,261.766174 254.344360,262.645416 251.954391,263.189636 
	C251.600327,263.270264 250.325012,261.183472 250.423920,261.088654 
	C251.604645,259.957153 252.964874,259.012970 254.751465,258.232422 
	C255.414658,258.702362 255.659927,258.885284 256.031097,259.336151 
	C257.069733,260.120026 258.037872,260.561615 259.003021,261.001617 
	C259.000000,261.000000 258.996429,260.995361 258.996429,260.995361 
z"/>
<path fill="#E4E6E7" opacity="1.000000" stroke="none" 
	d="
M170.001221,59.999134 
	C170.253036,60.599514 170.504837,61.199898 170.509369,61.210712 
	C169.380524,60.424454 167.766617,59.300354 166.152725,58.176250 
	C166.318237,57.680389 166.483765,57.184525 166.649277,56.688663 
	C169.224777,57.043251 171.800278,57.397839 174.375778,57.752426 
	C174.340210,58.376434 174.304642,59.000443 174.269073,59.624447 
	C173.090988,59.747463 171.912918,59.870480 170.316498,59.864822 
	C169.817307,59.688305 169.736496,59.640465 169.655670,59.592628 
	C169.770844,59.728134 169.886032,59.863636 170.001221,59.999134 
z"/>
<path fill="#E4E6E7" opacity="1.000000" stroke="none" 
	d="
M314.001221,59.999138 
	C314.253082,60.599491 314.504944,61.199856 314.703705,61.673641 
	C313.362122,60.442440 311.936005,59.133659 310.509888,57.824875 
	C310.556366,57.446056 310.602875,57.067238 310.649353,56.688423 
	C313.224854,57.043167 315.800354,57.397915 318.375854,57.752659 
	C318.340210,58.376640 318.304596,59.000626 318.268982,59.624607 
	C317.090820,59.747570 315.912659,59.870533 314.316254,59.864815 
	C313.817230,59.688297 313.736420,59.640457 313.655640,59.592621 
	C313.770813,59.728130 313.886017,59.863636 314.001221,59.999138 
z"/>
<path fill="#E4E6E7" opacity="1.000000" stroke="none" 
	d="
M314.001221,203.999207 
	C314.253052,204.599594 314.504852,205.199982 314.509277,205.210541 
	C313.380463,204.424500 311.766327,203.300552 310.152222,202.176605 
	C310.317963,201.680511 310.483704,201.184433 310.649445,200.688339 
	C313.224915,201.043121 315.800385,201.397919 318.375885,201.752701 
	C318.340240,202.376678 318.304596,203.000656 318.268982,203.624619 
	C317.090820,203.747589 315.912659,203.870544 314.316254,203.864822 
	C313.817230,203.688309 313.736420,203.640457 313.655640,203.592621 
	C313.770813,203.728149 313.886017,203.863678 314.001221,203.999207 
z"/>
<path fill="#E4E6E7" opacity="1.000000" stroke="none" 
	d="
M26.001116,59.999134 
	C26.252983,60.599491 26.504848,61.199848 26.509430,61.210762 
	C25.380510,60.424450 23.766623,59.300346 22.152737,58.176243 
	C22.318256,57.680374 22.483776,57.184505 22.649296,56.688637 
	C25.224787,57.043240 27.800278,57.397839 30.375769,57.752441 
	C30.340193,58.376453 30.304619,59.000465 30.269045,59.624474 
	C29.090961,59.747482 27.912880,59.870487 26.316475,59.864815 
	C25.817335,59.688290 25.736521,59.640438 25.655704,59.592587 
	C25.770842,59.728104 25.885979,59.863621 26.001116,59.999134 
z"/>
<path fill="#E4E6E7" opacity="1.000000" stroke="none" 
	d="
M26.001114,203.999191 
	C26.252981,204.599548 26.504848,205.199890 26.512808,205.218872 
	C25.379921,204.425018 23.770056,203.296951 22.160191,202.168869 
	C22.323233,201.675446 22.486275,201.182037 22.649317,200.688614 
	C25.224802,201.043213 27.800289,201.397827 30.375774,201.752441 
	C30.340199,202.376450 30.304621,203.000473 30.269043,203.624481 
	C29.090961,203.747498 27.912880,203.870499 26.316483,203.864838 
	C25.817352,203.688293 25.736540,203.640442 25.655727,203.592575 
	C25.770857,203.728119 25.885984,203.863647 26.001114,203.999191 
z"/>
<path fill="#E0E1E2" opacity="1.000000" stroke="none" 
	d="
M149.942627,79.984756 
	C149.647263,79.530708 149.351898,79.076660 149.037186,78.341843 
	C149.017853,76.588799 149.017853,75.116531 149.017853,72.767281 
	C151.413712,75.568489 152.875824,77.277977 154.669006,78.993774 
	C155.000076,79.000092 154.995132,78.996735 154.995132,78.996735 
	C154.731522,79.496475 154.467926,79.996223 154.099289,80.758789 
	C153.500519,81.239243 153.006760,81.456863 152.176971,81.410110 
	C151.208176,80.758743 150.575394,80.371750 149.942627,79.984756 
z"/>
<path fill="#E4E6E7" opacity="1.000000" stroke="none" 
	d="
M294.293457,80.013420 
	C293.659637,79.524422 293.354767,79.068321 293.029572,78.325935 
	C293.009247,76.570648 293.009247,75.101646 293.009247,73.632652 
	C293.490356,73.588699 293.971466,73.544754 294.452576,73.500801 
	C295.532135,75.734451 296.611725,77.968102 297.965485,80.769073 
	C296.411804,80.433174 295.517090,80.239746 294.293457,80.013420 
z"/>
<path fill="#E4E6E7" opacity="1.000000" stroke="none" 
	d="
M294.293457,224.013428 
	C293.659637,223.524429 293.354767,223.068329 293.029572,222.325928 
	C293.009247,220.572891 293.009247,219.106155 293.009247,217.639420 
	C293.490326,217.593231 293.971375,217.547043 294.452454,217.500854 
	C295.532013,219.734528 296.611572,221.968201 297.965240,224.769058 
	C296.411804,224.433197 295.517090,224.239746 294.293457,224.013428 
z"/>
<path fill="#E5E8E9" opacity="1.000000" stroke="none" 
	d="
M302.991669,217.992340 
	C301.738129,217.641632 300.361511,217.504074 299.269501,216.873611 
	C298.376373,216.357971 297.822662,215.254471 297.118500,214.411591 
	C298.041016,214.056580 298.963531,213.701569 299.807495,213.724792 
	C299.821411,214.071335 299.913849,214.039642 300.006287,214.007935 
	C302.225006,214.160034 304.560028,214.197037 303.264404,217.783157 
	C303.000000,218.000000 302.991669,217.992340 302.991669,217.992340 
z"/>
<path fill="#E5E7E8" opacity="1.000000" stroke="none" 
	d="
M255.960632,114.994202 
	C255.659897,114.885529 255.414612,114.702538 255.119598,114.239059 
	C254.950745,112.051041 255.388260,110.505714 257.764557,111.879898 
	C259.079651,112.640381 260.131470,113.856087 261.651001,114.933289 
	C262.000000,114.999992 262.004883,115.004089 262.004883,115.004089 
	C261.216125,115.650414 260.427338,116.296722 259.317505,116.969223 
	C258.996429,116.995407 259.000000,117.000412 258.856750,116.712341 
	C257.795868,115.947586 256.878235,115.470894 255.960632,114.994202 
z"/>
<path fill="#E5E8E9" opacity="1.000000" stroke="none" 
	d="
M14.991913,217.992340 
	C13.738294,217.641647 12.361628,217.504074 11.269523,216.873596 
	C10.376410,216.357986 9.822680,215.254517 9.118490,214.411652 
	C10.040934,214.056610 10.963377,213.701584 11.807252,213.724838 
	C11.821197,214.071396 11.913710,214.039658 12.006224,214.007935 
	C14.225022,214.159851 16.559656,214.197083 15.264602,217.783051 
	C15.000029,218.000000 14.991913,217.992340 14.991913,217.992340 
z"/>
<path fill="#E5E8E9" opacity="1.000000" stroke="none" 
	d="
M14.991912,73.992371 
	C13.738300,73.641663 12.361636,73.504097 11.269539,72.873611 
	C10.376416,72.357994 9.822686,71.254501 9.118490,70.411644 
	C10.040937,70.056618 10.963385,69.701591 11.807252,69.724838 
	C11.821189,70.071396 11.913706,70.039680 12.006224,70.007965 
	C14.225026,70.159866 16.559671,70.197067 15.264599,73.783066 
	C15.000035,74.000023 14.991912,73.992371 14.991912,73.992371 
z"/>
<path fill="#E5E8E9" opacity="1.000000" stroke="none" 
	d="
M300.006287,70.007965 
	C302.225067,70.159973 304.559937,70.197037 303.264404,73.783142 
	C303.000000,74.000000 302.991669,73.992371 302.991669,73.992371 
	C301.738098,73.641655 300.361450,73.504074 299.269409,72.873573 
	C298.376312,72.357918 297.822632,71.254379 297.118500,70.411461 
	C298.041016,70.056488 298.963531,69.701508 299.807526,69.724762 
	C299.821442,70.071320 299.913849,70.039642 300.006287,70.007965 
z"/>
<path fill="#E5E8E9" opacity="1.000000" stroke="none" 
	d="
M156.006210,70.007965 
	C158.224960,70.159889 160.559647,70.197014 159.264603,73.783066 
	C159.000000,74.000061 158.991989,73.992371 158.991989,73.992371 
	C157.738358,73.641655 156.361679,73.504089 155.269547,72.873611 
	C154.376419,72.358009 153.822678,71.254524 153.118484,70.411667 
	C154.040909,70.056633 154.963318,69.701607 155.807144,69.724869 
	C155.821106,70.071434 155.913651,70.039703 156.006210,70.007965 
z"/>
<path fill="#E5E7E8" opacity="1.000000" stroke="none" 
	d="
M111.960564,258.993896 
	C111.659843,258.885315 111.414581,258.702393 111.119576,258.239014 
	C110.950752,256.050995 111.388290,254.505646 113.764603,255.879898 
	C115.079681,256.640442 116.131485,257.856201 117.650986,258.933380 
	C118.000000,259.000000 118.005302,259.004059 118.005310,259.004059 
	C117.216423,259.650391 116.427536,260.296692 115.317566,260.969177 
	C114.996475,260.995361 115.000412,261.000000 114.856941,260.712097 
	C113.795837,259.947418 112.878204,259.470642 111.960564,258.993896 
z"/>
<path fill="#E5E7E8" opacity="1.000000" stroke="none" 
	d="
M255.960617,258.993896 
	C255.659927,258.885284 255.414658,258.702362 255.119598,258.239014 
	C254.950760,256.050995 255.388336,254.505707 257.764618,255.879929 
	C259.079681,256.640442 260.131500,257.856201 261.651001,258.933380 
	C262.000000,259.000000 262.004883,259.004059 262.004883,259.004059 
	C261.216095,259.650360 260.427338,260.296661 259.317505,260.969177 
	C258.996429,260.995361 259.000000,261.000000 258.856750,260.712097 
	C257.795868,259.947418 256.878235,259.470673 255.960617,258.993896 
z"/>
<path fill="#E0E1E2" opacity="1.000000" stroke="none" 
	d="
M107.991150,124.054947 
	C107.396591,124.943954 106.823463,125.809143 106.250336,126.674339 
	C104.476830,125.273293 102.703331,123.872246 100.929840,122.471199 
	C101.172325,122.094093 101.414810,121.716988 101.657295,121.339882 
	C102.881157,121.868179 104.105019,122.396477 105.664444,122.962387 
	C106.000000,123.000000 105.995888,122.996887 105.995888,122.996887 
	C106.479256,123.382515 106.962624,123.768143 107.697334,124.090378 
	C107.948669,124.026993 108.012581,124.031143 107.991150,124.054947 
z"/>
<path fill="#E4E7E8" opacity="1.000000" stroke="none" 
	d="
M279.001526,94.002121 
	C280.083130,93.531044 281.163177,93.057785 282.243256,92.584526 
	C282.419220,93.115501 282.595215,93.646469 282.771210,94.177444 
	C281.741547,94.119164 280.711914,94.060890 279.338837,93.999001 
	C278.995422,93.995392 279.000000,93.999954 279.001526,94.002121 
z"/>
<path fill="#E4E7E8" opacity="1.000000" stroke="none" 
	d="
M135.001511,238.002167 
	C136.083084,237.531052 137.163162,237.057785 138.243225,236.584518 
	C138.419205,237.115524 138.595184,237.646515 138.771164,238.177521 
	C137.741531,238.119217 136.711899,238.060898 135.338837,237.998993 
	C134.995407,237.995407 135.000000,238.000000 135.001511,238.002167 
z"/>
<path fill="#E4E7E8" opacity="1.000000" stroke="none" 
	d="
M279.001526,238.002136 
	C280.083099,237.531021 281.163177,237.057755 282.243225,236.584488 
	C282.419220,237.115448 282.595215,237.646423 282.771210,238.177399 
	C281.741577,238.119125 280.711945,238.060852 279.338867,237.998993 
	C278.995422,237.995407 279.000000,238.000000 279.001526,238.002136 
z"/>
<path fill="#E4E6E7" opacity="1.000000" stroke="none" 
	d="
M261.987091,109.013481 
	C261.642334,107.985954 261.297577,106.958435 260.952820,105.930908 
	C261.524597,105.869987 262.096344,105.809067 262.668121,105.748146 
	C262.466064,106.619339 262.264008,107.490532 262.031128,108.680656 
	C262.000275,108.999588 261.987091,109.013481 261.987091,109.013481 
z"/>
<path fill="#E4E6E7" opacity="1.000000" stroke="none" 
	d="
M263.991455,111.008804 
	C263.353027,110.555717 262.714569,110.102623 262.031616,109.331505 
	C261.987091,109.013481 262.000275,108.999588 262.006226,108.991531 
	C262.811798,108.517059 263.611359,108.050652 264.874207,107.314018 
	C264.519714,108.644981 264.288696,109.512444 264.028809,110.690002 
	C264.000000,111.000099 263.991455,111.008804 263.991455,111.008804 
z"/>
<path fill="#E4E6E7" opacity="1.000000" stroke="none" 
	d="
M5.987129,221.013489 
	C5.645202,219.994308 5.303273,218.975128 4.961345,217.955948 
	C5.530243,217.886719 6.099142,217.817474 6.668041,217.748245 
	C6.465979,218.619400 6.263918,219.490570 6.031039,220.680679 
	C6.000221,220.999619 5.987127,221.013489 5.987129,221.013489 
z"/>
<path fill="#E4E6E7" opacity="1.000000" stroke="none" 
	d="
M7.991616,79.008835 
	C7.352261,78.556046 6.712905,78.103256 6.036737,77.325272 
	C5.999926,77.000084 6.013273,76.987328 6.013272,76.987328 
	C6.813159,76.519371 7.613047,76.051414 8.874429,75.313469 
	C8.520007,76.643806 8.288701,77.512016 8.028650,78.690163 
	C7.999905,79.000092 7.991615,79.008835 7.991616,79.008835 
z"/>
<path fill="#E4E6E7" opacity="1.000000" stroke="none" 
	d="
M5.993223,77.006485 
	C5.645833,75.994148 5.305146,74.975418 4.964459,73.956696 
	C5.533203,73.888199 6.101946,73.819702 6.670690,73.751205 
	C6.467123,74.622887 6.263557,75.494568 6.036632,76.676788 
	C6.013273,76.987328 5.999926,77.000084 5.993223,77.006485 
z"/>
<path fill="#E4E6E7" opacity="1.000000" stroke="none" 
	d="
M117.987137,253.013504 
	C117.645157,251.994324 117.303177,250.975143 116.961197,249.955963 
	C117.530106,249.886673 118.099022,249.817383 118.667931,249.748093 
	C118.465919,250.619308 118.263901,251.490509 118.031136,252.680588 
	C118.000389,252.999451 117.987137,253.013504 117.987137,253.013504 
z"/>
<path fill="#E4E6E7" opacity="1.000000" stroke="none" 
	d="
M261.987091,253.013504 
	C261.638763,251.975327 261.290436,250.937149 260.942108,249.898956 
	C261.517426,249.848679 262.092743,249.798401 262.668060,249.748108 
	C262.466034,250.619308 262.264008,251.490524 262.031189,252.680573 
	C262.000458,252.999420 261.987091,253.013504 261.987091,253.013504 
z"/>
<path fill="#E4E6E7" opacity="1.000000" stroke="none" 
	d="
M118.006195,252.991455 
	C118.811623,252.517014 119.611237,252.050568 120.874359,251.313766 
	C120.519691,252.645004 120.288589,253.512466 120.028702,254.690018 
	C119.999908,255.000107 119.991623,255.008804 119.991623,255.008804 
	C119.353134,254.555725 118.714645,254.102646 118.031647,253.331543 
	C117.987137,253.013504 118.000389,252.999451 118.006195,252.991455 
z"/>
<path fill="#E4E6E7" opacity="1.000000" stroke="none" 
	d="
M262.006348,252.991425 
	C262.811798,252.517059 263.611359,252.050674 264.874237,251.314056 
	C264.519714,252.645020 264.288635,253.512466 264.028809,254.690002 
	C264.000000,255.000092 263.991455,255.008804 263.991455,255.008804 
	C263.353027,254.555725 262.714600,254.102631 262.031616,253.331512 
	C261.987091,253.013504 262.000458,252.999420 262.006348,252.991425 
z"/>
<path fill="#E4E6E7" opacity="1.000000" stroke="none" 
	d="
M7.991619,223.008789 
	C7.353096,222.555740 6.714571,222.102692 6.031587,221.331558 
	C5.987127,221.013489 6.000221,220.999619 6.006117,220.991531 
	C6.813517,220.515945 7.615020,220.048447 8.874126,219.314041 
	C8.519590,220.645050 8.288530,221.512497 8.028684,222.690018 
	C7.999897,223.000092 7.991615,223.008804 7.991619,223.008789 
z"/>
<path fill="#E4E6E7" opacity="1.000000" stroke="none" 
	d="
M120.004074,254.996155 
	C120.511467,255.295609 121.014694,255.599014 121.517914,255.902420 
	C121.337914,256.108887 121.157913,256.315338 120.977921,256.521820 
	C120.672615,256.204712 120.367317,255.887619 120.026825,255.289658 
	C119.991623,255.008804 119.999908,255.000107 120.004074,254.996155 
z"/>
<path fill="#E4E6E7" opacity="1.000000" stroke="none" 
	d="
M8.004089,222.996155 
	C8.511477,223.295624 9.014672,223.599030 9.517868,223.902451 
	C9.337848,224.108902 9.157828,224.315338 8.977810,224.521790 
	C8.672527,224.204697 8.367242,223.887604 8.026787,223.289673 
	C7.991615,223.008804 7.999897,223.000092 8.004089,222.996155 
z"/>
<path fill="#E4E6E7" opacity="1.000000" stroke="none" 
	d="
M264.004272,110.996140 
	C264.511688,111.295631 265.014832,111.599091 265.517975,111.902557 
	C265.337921,112.108978 265.157867,112.315392 264.977814,112.521805 
	C264.672546,112.204712 264.367249,111.887611 264.026733,111.289658 
	C263.991455,111.008804 264.000000,111.000099 264.004272,110.996140 
z"/>
<path fill="#E5E7E8" opacity="1.000000" stroke="none" 
	d="
M49.586731,183.044189 
	C49.200832,183.279465 48.817101,183.277435 48.435558,183.247467 
	C48.424648,183.246613 48.437077,182.948715 48.438622,182.789307 
	C48.822151,182.793854 49.205677,182.798386 49.586731,183.044189 
z"/>
<path fill="#E5E7E8" opacity="1.000000" stroke="none" 
	d="
M193.377747,39.453705 
	C192.940201,39.340137 192.671906,39.063950 192.424988,38.769814 
	C192.418015,38.761513 192.639206,38.561722 192.753998,38.451225 
	C193.019333,38.730343 193.284653,39.009457 193.377747,39.453705 
z"/>
<path fill="#E5E7E8" opacity="1.000000" stroke="none" 
	d="
M49.586716,39.044197 
	C49.200817,39.279472 48.817081,39.277462 48.435543,39.247490 
	C48.424633,39.246632 48.437057,38.948723 48.438602,38.789326 
	C48.822132,38.793861 49.205662,38.798401 49.586716,39.044197 
z"/>
<path fill="#E4E6E7" opacity="1.000000" stroke="none" 
	d="
M264.004272,254.996155 
	C264.511688,255.295639 265.014801,255.599075 265.517944,255.902496 
	C265.337921,256.108917 265.157867,256.315338 264.977844,256.521759 
	C264.672546,256.204681 264.367279,255.887573 264.026733,255.289642 
	C263.991455,255.008804 264.000000,255.000092 264.004272,254.996155 
z"/>
<path fill="#E5E8E9" opacity="1.000000" stroke="none" 
	d="
M15.003944,74.004150 
	C14.704288,74.509224 14.400721,75.010178 14.097153,75.511131 
	C13.891578,75.333839 13.686002,75.156555 13.480425,74.979263 
	C13.798015,74.675980 14.115604,74.372696 14.712553,74.030891 
	C14.991912,73.992371 15.000035,74.000023 15.003944,74.004150 
z"/>
<path fill="#E5E7E8" opacity="1.000000" stroke="none" 
	d="
M311.952820,64.591080 
	C311.717224,64.203529 311.719421,63.817696 311.748810,63.433945 
	C311.749573,63.423981 312.186676,63.429783 312.187195,63.440029 
	C312.206604,63.823505 312.198547,64.208382 311.952820,64.591080 
z"/>
<path fill="#E5E8E9" opacity="1.000000" stroke="none" 
	d="
M159.003967,74.004166 
	C158.704330,74.509224 158.400742,75.010170 158.097137,75.511124 
	C157.891571,75.333824 157.686005,75.156525 157.480438,74.979225 
	C157.798035,74.675949 158.115646,74.372673 158.712616,74.030884 
	C158.991989,73.992371 159.000000,74.000061 159.003967,74.004166 
z"/>
<path fill="#E5E8E9" opacity="1.000000" stroke="none" 
	d="
M303.003662,74.004135 
	C302.703949,74.509224 302.400574,75.010178 302.097168,75.511124 
	C301.891602,75.333855 301.686035,75.156586 301.480469,74.979309 
	C301.798004,74.676018 302.115509,74.372726 302.712341,74.030899 
	C302.991669,73.992371 303.000000,74.000000 303.003662,74.004135 
z"/>
<path fill="#E5E8E9" opacity="1.000000" stroke="none" 
	d="
M15.003942,218.004135 
	C14.704290,218.509216 14.400726,219.010147 14.097162,219.511093 
	C13.891593,219.333817 13.686023,219.156525 13.480450,218.979248 
	C13.798028,218.675949 14.115610,218.372665 14.712553,218.030853 
	C14.991913,217.992340 15.000029,218.000000 15.003942,218.004135 
z"/>
<path fill="#E5E8E9" opacity="1.000000" stroke="none" 
	d="
M303.003662,218.004135 
	C302.703918,218.509232 302.400543,219.010193 302.097137,219.511154 
	C301.891541,219.333878 301.685974,219.156616 301.480377,218.979355 
	C301.797913,218.676041 302.115448,218.372726 302.712341,218.030884 
	C302.991669,217.992340 303.000000,218.000000 303.003662,218.004135 
z"/>
<path fill="#E5E7E8" opacity="1.000000" stroke="none" 
	d="
M24.587040,64.043999 
	C24.201038,64.279358 23.817215,64.277344 23.435583,64.247406 
	C23.424706,64.246559 23.437136,63.948582 23.438698,63.789154 
	C23.822308,63.793663 24.205917,63.798176 24.587040,64.043999 
z"/>
<path fill="#E4E6E7" opacity="1.000000" stroke="none" 
	d="
M8.004094,78.996117 
	C8.511481,79.295570 9.014680,79.598999 9.517878,79.902435 
	C9.337860,80.108887 9.157845,80.315346 8.977829,80.521797 
	C8.672539,80.204712 8.367249,79.887627 8.026787,79.289688 
	C7.991615,79.008835 7.999905,79.000092 8.004094,78.996117 
z"/>
<path fill="#E5E7E8" opacity="1.000000" stroke="none" 
	d="
M168.378021,64.453598 
	C167.940414,64.340019 167.672073,64.063805 167.425125,63.769638 
	C167.418182,63.761364 167.639404,63.561520 167.754227,63.450996 
	C168.019577,63.730145 168.284943,64.009293 168.378021,64.453598 
z"/>
<path fill="#E5E7E8" opacity="1.000000" stroke="none" 
	d="
M311.408081,207.954315 
	C311.793945,207.718704 312.177979,207.720627 312.559814,207.750427 
	C312.570618,207.751282 312.558197,208.049316 312.556610,208.208771 
	C312.173065,208.204437 311.789490,208.200104 311.408081,207.954315 
z"/>
<path fill="#E5E7E8" opacity="1.000000" stroke="none" 
	d="
M24.377987,208.453613 
	C23.940384,208.340027 23.672052,208.063797 23.425110,207.769623 
	C23.418159,207.761322 23.639387,207.561493 23.754219,207.450989 
	C24.019569,207.730148 24.284914,208.009293 24.377987,208.453613 
z"/>
<path fill="#E5E7E8" opacity="1.000000" stroke="none" 
	d="
M17.643600,206.750488 
	C17.628927,206.992813 17.498262,207.124893 17.367596,207.256973 
	C17.420933,207.051392 17.474272,206.845825 17.643600,206.750488 
z"/>
<path fill="#E5E7E8" opacity="1.000000" stroke="none" 
	d="
M305.753143,206.988800 
	C305.590912,207.095779 305.427277,207.043304 305.263672,206.990814 
	C305.426361,206.936996 305.589081,206.883194 305.753143,206.988800 
z"/>
<path fill="#E5E7E8" opacity="1.000000" stroke="none" 
	d="
M114.009445,253.748749 
	C113.905037,253.589798 113.956787,253.428818 114.008522,253.267822 
	C114.060883,253.427460 114.113251,253.587082 114.009445,253.748749 
z"/>
<path fill="#E4E6E7" opacity="1.000000" stroke="none" 
	d="
M123.592117,254.263580 
	C123.439606,254.142242 123.418442,253.934357 123.397278,253.726471 
	C123.506012,253.876648 123.614738,254.026840 123.592117,254.263580 
z"/>
<path fill="#E5E7E8" opacity="1.000000" stroke="none" 
	d="
M257.988342,253.257492 
	C258.092651,253.416885 258.040863,253.577682 257.989075,253.738480 
	C257.936829,253.578613 257.884521,253.418747 257.988342,253.257492 
z"/>
<path fill="#E4E6E7" opacity="1.000000" stroke="none" 
	d="
M267.250793,254.012726 
	C267.410736,253.907852 267.571106,253.959076 267.731476,254.010315 
	C267.571411,254.063141 267.411316,254.115982 267.250793,254.012726 
z"/>
<path fill="#E5E7E8" opacity="1.000000" stroke="none" 
	d="
M21.011003,210.746826 
	C20.904255,210.584473 20.956867,210.420883 21.009480,210.257309 
	C21.063108,210.420074 21.116737,210.582840 21.011003,210.746826 
z"/>
<path fill="#E5E7E8" opacity="1.000000" stroke="none" 
	d="
M308.988464,210.246887 
	C309.095459,210.409195 309.042999,210.572861 308.990540,210.736542 
	C308.936676,210.573792 308.882843,210.411041 308.988464,210.246887 
z"/>
<path fill="#E4E6E7" opacity="1.000000" stroke="none" 
	d="
M11.401091,221.738861 
	C11.553366,221.859955 11.574574,222.067947 11.595780,222.275925 
	C11.487194,222.125870 11.378610,221.975815 11.401091,221.738861 
z"/>
<path fill="#E5E8E9" opacity="1.000000" stroke="none" 
	d="
M255.009933,265.743652 
	C254.904526,265.582733 254.956345,265.420898 255.008163,265.259033 
	C255.061157,265.420258 255.114151,265.581512 255.009933,265.743652 
z"/>
<path fill="#E5E7E8" opacity="1.000000" stroke="none" 
	d="
M46.249538,185.637344 
	C46.007248,185.622559 45.875225,185.491882 45.743202,185.361191 
	C45.948738,185.414612 46.154270,185.468018 46.249538,185.637344 
z"/>
<path fill="#E5E8E9" opacity="1.000000" stroke="none" 
	d="
M110.752930,265.356567 
	C110.991302,265.371185 111.121590,265.500977 111.251877,265.630737 
	C111.049538,265.577759 110.847198,265.524750 110.752930,265.356567 
z"/>
<path fill="#E4E6E7" opacity="1.000000" stroke="none" 
	d="
M299.591980,222.263611 
	C299.439484,222.142303 299.418335,221.934464 299.397186,221.726624 
	C299.505890,221.876785 299.614563,222.026932 299.591980,222.263611 
z"/>
<path fill="#E5E7E8" opacity="1.000000" stroke="none" 
	d="
M165.249542,66.637360 
	C165.007263,66.622574 164.875229,66.491875 164.743195,66.361176 
	C164.948730,66.414597 165.154282,66.468018 165.249542,66.637360 
z"/>
<path fill="#E0E1E2" opacity="1.000000" stroke="none" 
	d="
M155.002686,79.002777 
	C155.120483,78.586372 155.235657,78.167282 155.350830,77.748184 
	C155.364548,78.083603 155.378265,78.419014 155.193573,78.875580 
	C154.995132,78.996735 155.000076,79.000092 155.002686,79.002777 
z"/>
<path fill="#E4E6E7" opacity="1.000000" stroke="none" 
	d="
M299.741638,77.990265 
	C299.582184,78.094788 299.421814,78.043350 299.261475,77.991913 
	C299.421234,77.939377 299.580994,77.886841 299.741638,77.990265 
z"/>
<path fill="#E4E6E7" opacity="1.000000" stroke="none" 
	d="
M11.250813,78.012817 
	C11.410661,77.907967 11.570976,77.959190 11.731294,78.010406 
	C11.571289,78.063240 11.411284,78.116066 11.250813,78.012817 
z"/>
<path fill="#E5E7E8" opacity="1.000000" stroke="none" 
	d="
M17.643593,62.750458 
	C17.628935,62.992786 17.498272,63.124886 17.367609,63.256981 
	C17.420935,63.051395 17.474262,62.845810 17.643593,62.750458 
z"/>
<path fill="#E5E7E8" opacity="1.000000" stroke="none" 
	d="
M257.988403,109.257538 
	C258.092621,109.416931 258.040802,109.577682 257.988983,109.738441 
	C257.936768,109.578590 257.884552,109.418739 257.988403,109.257538 
z"/>
<path fill="#E5E7E8" opacity="1.000000" stroke="none" 
	d="
M308.750061,66.356499 
	C308.992432,66.371147 309.124573,66.501831 309.256683,66.632507 
	C309.051056,66.579185 308.845428,66.525864 308.750061,66.356499 
z"/>
<path fill="#E4E6E7" opacity="1.000000" stroke="none" 
	d="
M267.741882,109.990189 
	C267.582336,110.094734 267.421936,110.043282 267.261505,109.991829 
	C267.421356,109.939285 267.581177,109.886742 267.741882,109.990189 
z"/>
<path fill="#E5E7E8" opacity="1.000000" stroke="none" 
	d="
M190.249512,41.637375 
	C190.007217,41.622578 189.875198,41.491875 189.743195,41.361168 
	C189.948730,41.414600 190.154266,41.468037 190.249512,41.637375 
z"/>
<path fill="#E5E7E8" opacity="1.000000" stroke="none" 
	d="
M45.988472,41.246910 
	C46.095455,41.409180 46.042988,41.572853 45.990517,41.736526 
	C45.936684,41.573788 45.882854,41.411049 45.988472,41.246910 
z"/>
<path fill="#E5E7E8" opacity="1.000000" stroke="none" 
	d="
M20.750078,66.356491 
	C20.992435,66.371132 21.124550,66.501808 21.256664,66.632484 
	C21.051054,66.579163 20.845446,66.525841 20.750078,66.356491 
z"/>
<path fill="#E5E7E8" opacity="1.000000" stroke="none" 
	d="
M161.643555,62.750462 
	C161.628906,62.992794 161.498260,63.124889 161.367615,63.256985 
	C161.420929,63.051399 161.474258,62.845814 161.643555,62.750462 
z"/>
<path fill="#E5E7E8" opacity="1.000000" stroke="none" 
	d="
M186.601349,38.268562 
	C186.445526,38.144886 186.423386,37.932217 186.401245,37.719547 
	C186.512497,37.872887 186.623764,38.026230 186.601349,38.268562 
z"/>
<path fill="#E0E1E2" opacity="1.000000" stroke="none" 
	d="
M104.241562,119.639404 
	C104.006088,119.625175 103.878181,119.498482 103.750275,119.371796 
	C103.949890,119.423515 104.149513,119.475227 104.241562,119.639404 
z"/>
<path fill="#E5E8E9" opacity="1.000000" stroke="none" 
	d="
M254.734619,121.592850 
	C254.856781,121.438934 255.066071,121.417397 255.275375,121.395859 
	C255.124161,121.505653 254.972961,121.615440 254.734619,121.592850 
z"/>
<path fill="#E5E7E8" opacity="1.000000" stroke="none" 
	d="
M42.405224,37.731812 
	C42.560993,37.855583 42.583031,38.068253 42.605068,38.280918 
	C42.493877,38.127514 42.382687,37.974113 42.405224,37.731812 
z"/>
<path fill="#E5E7E8" opacity="1.000000" stroke="none" 
	d="
M305.362793,63.249878 
	C305.377563,63.007599 305.508240,62.875584 305.638885,62.743576 
	C305.585480,62.949097 305.532074,63.154621 305.362793,63.249878 
z"/>
<path fill="#E5E7E8" opacity="1.000000" stroke="none" 
	d="
M42.601326,182.268585 
	C42.445518,182.144913 42.423378,181.932220 42.401241,181.719543 
	C42.512489,181.872894 42.623741,182.026230 42.601326,182.268585 
z"/>
<path fill="#E4E7E8" opacity="1.000000" stroke="none" 
	d="
M276.997864,234.997253 
	C277.103027,234.675659 277.292267,234.416748 277.781738,234.108887 
	C278.000000,234.000000 278.001221,234.000946 278.001221,234.000946 
	C277.901794,234.324310 277.715668,234.585983 277.224487,234.895203 
	C277.006104,235.004395 277.000000,235.000000 276.997864,234.997253 
z"/>
<path fill="#E4E6E7" opacity="1.000000" stroke="none" 
	d="
M313.451355,54.535183 
	C313.420258,54.482094 313.482422,54.588272 313.451355,54.535183 
z"/>
<path fill="#E4E7E8" opacity="1.000000" stroke="none" 
	d="
M132.997849,234.997253 
	C133.103134,234.675674 133.292465,234.416748 133.781845,234.108856 
	C134.000000,234.000000 134.001221,234.000946 134.001221,234.000946 
	C133.901779,234.324295 133.715652,234.585983 133.224457,234.895203 
	C133.006073,235.004395 133.000000,235.000000 132.997849,234.997253 
z"/>
<path fill="#E4E7E8" opacity="1.000000" stroke="none" 
	d="
M277.999390,233.999390 
	C278.087402,233.965134 278.176056,233.931503 278.132935,233.949402 
	C278.001221,234.000946 278.000000,234.000000 277.999390,233.999390 
z"/>
<path fill="#E5E7E8" opacity="1.000000" stroke="none" 
	d="
M20.997545,62.998116 
	C21.088842,62.965317 21.180141,62.932522 21.135719,62.949863 
	C21.000000,63.000000 20.997545,62.998116 20.997545,62.998116 
z"/>
<path fill="#E5E7E8" opacity="1.000000" stroke="none" 
	d="
M307.451263,60.527245 
	C307.420532,60.475182 307.481995,60.579304 307.451263,60.527245 
z"/>
<path fill="#E5E7E8" opacity="1.000000" stroke="none" 
	d="
M163.528076,60.544258 
	C163.475601,60.574329 163.580551,60.514191 163.528076,60.544258 
z"/>
<path fill="#E4E7E8" opacity="1.000000" stroke="none" 
	d="
M133.999557,233.999390 
	C134.087631,233.965164 134.176147,233.931534 134.132935,233.949432 
	C134.001221,234.000946 134.000000,234.000000 133.999557,233.999390 
z"/>
<path fill="#E5E7E8" opacity="1.000000" stroke="none" 
	d="
M19.544828,60.468315 
	C19.575520,60.520435 19.514137,60.416195 19.544828,60.468315 
z"/>
<path fill="#E5E7E8" opacity="1.000000" stroke="none" 
	d="
M44.467609,35.451332 
	C44.519905,35.420990 44.415314,35.481670 44.467609,35.451332 
z"/>
<path fill="#E4E6E7" opacity="1.000000" stroke="none" 
	d="
M169.529022,54.551750 
	C169.476181,54.583195 169.581879,54.520309 169.529022,54.551750 
z"/>
<path fill="#E4E6E7" opacity="1.000000" stroke="none" 
	d="
M25.468580,54.456444 
	C25.521612,54.425236 25.415548,54.487652 25.468580,54.456444 
z"/>
<path fill="#E5E7E8" opacity="1.000000" stroke="none" 
	d="
M190.002441,38.001930 
	C189.913437,38.036362 189.824417,38.070793 189.867706,38.052612 
	C190.000000,38.000000 190.002441,38.001926 190.002441,38.001930 
z"/>
<path fill="#E5E7E8" opacity="1.000000" stroke="none" 
	d="
M46.002441,38.001930 
	C45.913448,38.036362 45.824451,38.070793 45.867729,38.052612 
	C46.000000,38.000000 46.002441,38.001926 46.002441,38.001930 
z"/>
<path fill="#E5E7E8" opacity="1.000000" stroke="none" 
	d="
M189.999054,37.998802 
	C190.089127,37.964737 190.180145,37.931877 190.136810,37.950470 
	C190.002441,38.001926 190.000000,38.000000 189.999054,37.998802 
z"/>
<path fill="#E5E7E8" opacity="1.000000" stroke="none" 
	d="
M117.997864,258.997498 
	C118.087646,258.961548 118.179573,258.928101 118.138397,258.949371 
	C118.005302,259.004059 118.000000,259.000000 117.997864,258.997498 
z"/>
<path fill="#E5E7E8" opacity="1.000000" stroke="none" 
	d="
M261.997894,258.997498 
	C262.087585,258.961578 262.179352,258.928162 262.138000,258.949402 
	C262.004883,259.004059 262.000000,259.000000 261.997894,258.997498 
z"/>
<path fill="#E5E7E8" opacity="1.000000" stroke="none" 
	d="
M45.999069,37.998802 
	C46.089153,37.964741 46.180164,37.931873 46.136810,37.950470 
	C46.002441,38.001926 46.000000,38.000000 45.999069,37.998802 
z"/>
<path fill="#E5E7E8" opacity="1.000000" stroke="none" 
	d="
M188.528046,35.544228 
	C188.475571,35.574303 188.580521,35.514153 188.528046,35.544228 
z"/>
<path fill="#E5E7E8" opacity="1.000000" stroke="none" 
	d="
M46.002441,182.001892 
	C45.913448,182.036331 45.824451,182.070770 45.867729,182.052597 
	C46.000000,182.000000 46.002441,182.001892 46.002441,182.001892 
z"/>
<path fill="#E5E7E8" opacity="1.000000" stroke="none" 
	d="
M308.997559,206.998077 
	C309.088928,206.965256 309.180298,206.932419 309.135834,206.949799 
	C309.000000,207.000000 308.997559,206.998077 308.997559,206.998077 
z"/>
<path fill="#E5E7E8" opacity="1.000000" stroke="none" 
	d="
M45.999069,181.998779 
	C46.089149,181.964691 46.180157,181.931839 46.136803,181.950439 
	C46.002441,182.001892 46.000000,182.000000 45.999069,181.998779 
z"/>
<path fill="#E5E7E8" opacity="1.000000" stroke="none" 
	d="
M44.528015,179.544250 
	C44.475544,179.574341 44.580486,179.514160 44.528015,179.544250 
z"/>
<path fill="#E0E1E2" opacity="1.000000" stroke="none" 
	d="
M106.001671,123.002136 
	C106.089211,122.966438 106.175079,122.928604 106.128418,122.943832 
	C105.995888,122.996887 106.000000,123.000000 106.001671,123.002136 
z"/>
<path fill="#E4E6E7" opacity="1.000000" stroke="none" 
	d="
M25.451332,198.535202 
	C25.420271,198.482117 25.482391,198.588287 25.451332,198.535202 
z"/>
<path fill="#E4E6E7" opacity="1.000000" stroke="none" 
	d="
M313.468567,198.456421 
	C313.521606,198.425232 313.415527,198.487625 313.468567,198.456421 
z"/>
<path fill="#E5E7E8" opacity="1.000000" stroke="none" 
	d="
M261.997894,114.997253 
	C262.087585,114.961288 262.179352,114.928055 262.138000,114.949463 
	C262.004883,115.004089 262.000000,114.999992 261.997894,114.997253 
z"/>
<path fill="#E5E7E8" opacity="1.000000" stroke="none" 
	d="
M19.528080,204.544266 
	C19.475618,204.574356 19.580544,204.514175 19.528080,204.544266 
z"/>
<path fill="#70C0C3" opacity="1.000000" stroke="none" 
	d="
M166.075302,204.244644 
	C166.326324,204.106064 166.584564,204.296661 166.892334,204.785156 
	C166.714188,204.833694 166.427734,204.663940 166.075302,204.244644 
z"/>
<path fill="#E5E7E8" opacity="1.000000" stroke="none" 
	d="
M307.528076,204.544281 
	C307.475586,204.574356 307.580536,204.514206 307.528076,204.544281 
z"/>
<path fill="#E5E7E8" opacity="1.000000" stroke="none" 
	d="
M20.997543,206.998077 
	C21.088839,206.965256 21.180136,206.932434 21.135715,206.949799 
	C21.000000,207.000000 20.997545,206.998077 20.997543,206.998077 
z"/>
<path fill="#E5E7E8" opacity="1.000000" stroke="none" 
	d="
M164.997559,62.998116 
	C165.088837,62.965321 165.180130,62.932526 165.135712,62.949867 
	C165.000000,63.000000 164.997559,62.998116 164.997559,62.998116 
z"/>
<path fill="#E5E7E8" opacity="1.000000" stroke="none" 
	d="
M21.000996,207.001221 
	C20.913168,207.036911 20.824345,207.071381 20.866533,207.051971 
	C20.997545,206.998077 21.000000,207.000000 21.000996,207.001221 
z"/>
<path fill="#E4E7E8" opacity="1.000000" stroke="none" 
	d="
M278.001221,90.000946 
	C277.901733,90.324280 277.715607,90.585960 277.224487,90.895187 
	C277.006104,91.004402 277.000000,91.000000 276.997864,90.997177 
	C277.103119,90.675598 277.292389,90.416733 277.781769,90.108871 
	C278.000000,90.000000 278.001221,90.000946 278.001221,90.000946 
z"/>
<path fill="#E5E7E8" opacity="1.000000" stroke="none" 
	d="
M309.001129,207.001221 
	C308.913330,207.036926 308.824432,207.071396 308.866516,207.051971 
	C308.997559,206.998077 309.000000,207.000000 309.001129,207.001221 
z"/>
<path fill="#E4E7E8" opacity="1.000000" stroke="none" 
	d="
M277.999390,89.999390 
	C278.087402,89.965134 278.176056,89.931480 278.132935,89.949387 
	C278.001221,90.000946 278.000000,90.000000 277.999390,89.999390 
z"/>
<path fill="#E5E7E8" opacity="1.000000" stroke="none" 
	d="
M309.002441,63.001984 
	C308.913422,63.036388 308.824402,63.070793 308.867676,63.052601 
	C309.000000,63.000000 309.002441,63.001984 309.002441,63.001984 
z"/>
<path fill="#E5E7E8" opacity="1.000000" stroke="none" 
	d="
M165.000977,63.001297 
	C164.913162,63.037018 164.824341,63.071442 164.866547,63.051987 
	C164.997559,62.998116 165.000000,63.000000 165.000977,63.001297 
z"/>
<path fill="#E5E7E8" opacity="1.000000" stroke="none" 
	d="
M21.000998,63.001297 
	C20.913170,63.037022 20.824345,63.071442 20.866533,63.051991 
	C20.997545,62.998116 21.000000,63.000000 21.000998,63.001297 
z"/>
<path fill="#E5E7E8" opacity="1.000000" stroke="none" 
	d="
M308.999023,62.998768 
	C309.089111,62.964691 309.180176,62.931847 309.136841,62.950493 
	C309.002441,63.001984 309.000000,63.000000 308.999023,62.998768 
z"/>
<path fill="#F3F6F7" opacity="1.000000" stroke="none" 
	d="
M149.994614,80.298264 
	C150.575394,80.371750 151.208176,80.758743 151.905579,81.441498 
	C151.970200,81.737267 151.605804,82.026779 151.374283,82.050262 
	C150.777374,81.586418 150.411987,81.099091 149.994614,80.298264 
z"/>
<path fill="#70C0C3" opacity="1.000000" stroke="none" 
	d="
M170.000916,203.999283 
	C169.886871,203.864975 169.771912,203.731384 169.656952,203.597794 
	C169.736496,203.645340 169.816025,203.692886 169.947067,203.871124 
	C169.998566,204.001831 170.000000,204.000000 170.000916,203.999283 
z"/>
<path fill="#F3F6F7" opacity="1.000000" stroke="none" 
	d="
M256.031128,115.336426 
	C256.878235,115.470894 257.795868,115.947586 258.859741,116.713821 
	C258.037903,116.561798 257.069733,116.120224 256.031128,115.336426 
z"/>
<path fill="#F3F6F7" opacity="1.000000" stroke="none" 
	d="
M112.031052,259.336182 
	C112.878204,259.470642 113.795837,259.947418 114.859734,260.713715 
	C114.037842,260.561646 113.069695,260.120056 112.031052,259.336182 
z"/>
<path fill="#F3F6F7" opacity="1.000000" stroke="none" 
	d="
M256.031097,259.336151 
	C256.878235,259.470673 257.795868,259.947418 258.859772,260.713715 
	C258.037872,260.561615 257.069733,260.120026 256.031097,259.336151 
z"/>
<path fill="#F3F6F7" opacity="1.000000" stroke="none" 
	d="
M170.000610,59.999569 
	C169.886032,59.863636 169.770844,59.728134 169.655670,59.592628 
	C169.736496,59.640465 169.817307,59.688305 169.948639,59.868652 
	C169.999161,60.001160 170.000000,60.000000 170.000610,59.999569 
z"/>
<path fill="#F3F6F7" opacity="1.000000" stroke="none" 
	d="
M314.000610,59.999573 
	C313.886017,59.863636 313.770813,59.728130 313.655640,59.592621 
	C313.736420,59.640457 313.817230,59.688297 313.948395,59.868652 
	C313.998779,60.001163 314.000000,60.000000 314.000610,59.999573 
z"/>
<path fill="#F3F6F7" opacity="1.000000" stroke="none" 
	d="
M314.000610,203.999603 
	C313.886017,203.863678 313.770813,203.728149 313.655640,203.592621 
	C313.736420,203.640457 313.817230,203.688309 313.948395,203.868683 
	C313.998779,204.001221 314.000000,204.000000 314.000610,203.999603 
z"/>
<path fill="#F3F6F7" opacity="1.000000" stroke="none" 
	d="
M26.000557,59.999565 
	C25.885979,59.863621 25.770842,59.728104 25.655704,59.592587 
	C25.736521,59.640438 25.817335,59.688290 25.948631,59.868645 
	C25.999113,60.001156 26.000000,60.000000 26.000557,59.999565 
z"/>
<path fill="#F3F6F7" opacity="1.000000" stroke="none" 
	d="
M26.000557,203.999603 
	C25.885984,203.863647 25.770857,203.728119 25.655727,203.592575 
	C25.736540,203.640442 25.817352,203.688293 25.948639,203.868683 
	C25.999113,204.001221 26.000000,204.000000 26.000557,203.999603 
z"/>
<path fill="#F3F6F7" opacity="1.000000" stroke="none" 
	d="
M300.003143,214.003998 
	C299.913849,214.039642 299.821411,214.071335 299.860840,214.048523 
	C299.992676,213.994019 300.000000,214.000061 300.003143,214.003998 
z"/>
<path fill="#F3F6F7" opacity="1.000000" stroke="none" 
	d="
M12.003123,214.003967 
	C11.913710,214.039658 11.821197,214.071396 11.860471,214.048584 
	C11.992259,213.994019 12.000024,214.000000 12.003123,214.003967 
z"/>
<path fill="#F3F6F7" opacity="1.000000" stroke="none" 
	d="
M12.003124,70.003998 
	C11.913706,70.039680 11.821189,70.071396 11.860465,70.048576 
	C11.992258,69.994034 12.000024,70.000038 12.003124,70.003998 
z"/>
<path fill="#F3F6F7" opacity="1.000000" stroke="none" 
	d="
M300.003143,70.004028 
	C299.913849,70.039642 299.821442,70.071320 299.860840,70.048508 
	C299.992676,69.994019 300.000000,70.000084 300.003143,70.004028 
z"/>
<path fill="#F3F6F7" opacity="1.000000" stroke="none" 
	d="
M156.003113,70.003998 
	C155.913651,70.039703 155.821106,70.071434 155.860306,70.048599 
	C155.992065,69.994034 156.000000,70.000015 156.003113,70.003998 
z"/>
</svg>