<?xml version="1.0" standalone="no"?>
<!DOCTYPE svg PUBLIC "-//W3C//DTD SVG 20010904//EN"
 "http://www.w3.org/TR/2001/REC-SVG-20010904/DTD/svg10.dtd">
<svg version="1.0" xmlns="http://www.w3.org/2000/svg"
 width="414.000000pt" height="286.000000pt" viewBox="0 0 414.000000 286.000000"
 preserveAspectRatio="xMidYMid meet">

<g transform="translate(0.000000,286.000000) scale(0.100000,-0.100000)"
fill="#000000" stroke="none">
<path d="M1368 1968 l-157 -91 -71 -124 c-39 -69 -70 -127 -68 -128 2 -2 105
55 228 126 124 71 231 127 239 124 7 -3 116 -66 242 -140 126 -74 232 -135
234 -135 3 0 5 39 5 88 l-1 87 -191 110 c-105 61 -216 124 -247 142 l-57 32
-156 -91z"/>
<path d="M2248 1528 l-3 -262 -95 -58 c-52 -32 -159 -95 -238 -139 -78 -45
-144 -84 -146 -88 -3 -4 27 -26 66 -49 l70 -43 247 145 246 144 3 182 2 182
-71 124 c-39 68 -73 124 -75 124 -2 0 -5 -118 -6 -262z"/>
<path d="M1305 1485 l-70 -41 -3 -289 -2 -290 155 -87 155 -88 147 0 c91 0
143 4 137 9 -5 6 -106 64 -224 130 l-215 121 -5 288 -5 289 -70 -42z"/>
</g>
</svg>
